<svg xmlns="http://www.w3.org/2000/svg" xmlns:xlink="http://www.w3.org/1999/xlink" width="100" zoomAndPan="magnify" viewBox="0 0 75 74.999997" height="100" preserveAspectRatio="xMidYMid meet" version="1.2"><defs><clipPath id="0209687809"><path d="M 1.835938 1.835938 L 73.164062 1.835938 L 73.164062 73.164062 L 1.835938 73.164062 Z M 1.835938 1.835938 "/></clipPath><clipPath id="b0edb099d5"><path d="M 37.5 1.835938 C 17.804688 1.835938 1.835938 17.804688 1.835938 37.5 C 1.835938 57.195312 17.804688 73.164062 37.5 73.164062 C 57.195312 73.164062 73.164062 57.195312 73.164062 37.5 C 73.164062 17.804688 57.195312 1.835938 37.5 1.835938 Z M 37.5 1.835938 "/></clipPath><radialGradient gradientTransform="matrix(1,0,0,1,1.83748,1.837478)" id="17b8d59740" gradientUnits="userSpaceOnUse" r="100.868931" cx="0" fx="0" cy="0" fy="0"><stop style="stop-color:#a6a6a6;stop-opacity:1;" offset="0"/><stop style="stop-color:#a7a7a7;stop-opacity:1;" offset="0.0078125"/><stop style="stop-color:#a7a7a7;stop-opacity:1;" offset="0.0117188"/><stop style="stop-color:#a8a8a8;stop-opacity:1;" offset="0.015625"/><stop style="stop-color:#a8a8a8;stop-opacity:1;" offset="0.0195312"/><stop style="stop-color:#a8a8a8;stop-opacity:1;" offset="0.0234375"/><stop style="stop-color:#a9a9a9;stop-opacity:1;" offset="0.0273438"/><stop style="stop-color:#a9a9a9;stop-opacity:1;" offset="0.03125"/><stop style="stop-color:#a9a9a9;stop-opacity:1;" offset="0.0351562"/><stop style="stop-color:#aaaaaa;stop-opacity:1;" offset="0.0390625"/><stop style="stop-color:#aaaaaa;stop-opacity:1;" offset="0.0429688"/><stop style="stop-color:#aaaaaa;stop-opacity:1;" offset="0.046875"/><stop style="stop-color:#ababab;stop-opacity:1;" offset="0.0507812"/><stop style="stop-color:#ababab;stop-opacity:1;" offset="0.0546875"/><stop style="stop-color:#ababab;stop-opacity:1;" offset="0.0585938"/><stop style="stop-color:#acacac;stop-opacity:1;" offset="0.0625"/><stop style="stop-color:#acacac;stop-opacity:1;" offset="0.0664062"/><stop style="stop-color:#acacac;stop-opacity:1;" offset="0.0703125"/><stop style="stop-color:#adadad;stop-opacity:1;" offset="0.0742188"/><stop style="stop-color:#adadad;stop-opacity:1;" offset="0.078125"/><stop style="stop-color:#adadad;stop-opacity:1;" offset="0.0820312"/><stop style="stop-color:#aeaeae;stop-opacity:1;" offset="0.0859375"/><stop style="stop-color:#aeaeae;stop-opacity:1;" offset="0.0898438"/><stop style="stop-color:#afafaf;stop-opacity:1;" offset="0.09375"/><stop style="stop-color:#afafaf;stop-opacity:1;" offset="0.0976562"/><stop style="stop-color:#afafaf;stop-opacity:1;" offset="0.101562"/><stop style="stop-color:#b0b0b0;stop-opacity:1;" offset="0.105469"/><stop style="stop-color:#b0b0b0;stop-opacity:1;" offset="0.109375"/><stop style="stop-color:#b0b0b0;stop-opacity:1;" offset="0.113281"/><stop style="stop-color:#b1b1b1;stop-opacity:1;" offset="0.117188"/><stop style="stop-color:#b1b1b1;stop-opacity:1;" offset="0.121094"/><stop style="stop-color:#b1b1b1;stop-opacity:1;" offset="0.125"/><stop style="stop-color:#b2b2b2;stop-opacity:1;" offset="0.128906"/><stop style="stop-color:#b2b2b2;stop-opacity:1;" offset="0.132812"/><stop style="stop-color:#b2b2b2;stop-opacity:1;" offset="0.136719"/><stop style="stop-color:#b3b3b3;stop-opacity:1;" offset="0.140625"/><stop style="stop-color:#b3b3b3;stop-opacity:1;" offset="0.144531"/><stop style="stop-color:#b3b3b3;stop-opacity:1;" offset="0.148438"/><stop style="stop-color:#b4b4b4;stop-opacity:1;" offset="0.152344"/><stop style="stop-color:#b4b4b4;stop-opacity:1;" offset="0.15625"/><stop style="stop-color:#b4b4b4;stop-opacity:1;" offset="0.160156"/><stop style="stop-color:#b5b5b5;stop-opacity:1;" offset="0.164062"/><stop style="stop-color:#b5b5b5;stop-opacity:1;" offset="0.167969"/><stop style="stop-color:#b5b5b5;stop-opacity:1;" offset="0.171875"/><stop style="stop-color:#b6b6b6;stop-opacity:1;" offset="0.175781"/><stop style="stop-color:#b6b6b6;stop-opacity:1;" offset="0.179688"/><stop style="stop-color:#b7b7b7;stop-opacity:1;" offset="0.183594"/><stop style="stop-color:#b7b7b7;stop-opacity:1;" offset="0.1875"/><stop style="stop-color:#b7b7b7;stop-opacity:1;" offset="0.191406"/><stop style="stop-color:#b8b8b8;stop-opacity:1;" offset="0.195312"/><stop style="stop-color:#b8b8b8;stop-opacity:1;" offset="0.199219"/><stop style="stop-color:#b8b8b8;stop-opacity:1;" offset="0.203125"/><stop style="stop-color:#b9b9b9;stop-opacity:1;" offset="0.207031"/><stop style="stop-color:#b9b9b9;stop-opacity:1;" offset="0.210938"/><stop style="stop-color:#b9b9b9;stop-opacity:1;" offset="0.214844"/><stop style="stop-color:#bababa;stop-opacity:1;" offset="0.21875"/><stop style="stop-color:#bababa;stop-opacity:1;" offset="0.222656"/><stop style="stop-color:#bababa;stop-opacity:1;" offset="0.226562"/><stop style="stop-color:#bbbbbb;stop-opacity:1;" offset="0.230469"/><stop style="stop-color:#bbbbbb;stop-opacity:1;" offset="0.234375"/><stop style="stop-color:#bbbbbb;stop-opacity:1;" offset="0.238281"/><stop style="stop-color:#bcbcbc;stop-opacity:1;" offset="0.242188"/><stop style="stop-color:#bcbcbc;stop-opacity:1;" offset="0.246094"/><stop style="stop-color:#bcbcbc;stop-opacity:1;" offset="0.25"/><stop style="stop-color:#bdbdbd;stop-opacity:1;" offset="0.253906"/><stop style="stop-color:#bebebe;stop-opacity:1;" offset="0.261719"/><stop style="stop-color:#bebebe;stop-opacity:1;" offset="0.269531"/><stop style="stop-color:#bfbfbf;stop-opacity:1;" offset="0.277344"/><stop style="stop-color:#c0c0c0;stop-opacity:1;" offset="0.285156"/><stop style="stop-color:#c0c0c0;stop-opacity:1;" offset="0.292969"/><stop style="stop-color:#c1c1c1;stop-opacity:1;" offset="0.300781"/><stop style="stop-color:#c2c2c2;stop-opacity:1;" offset="0.308594"/><stop style="stop-color:#c3c3c3;stop-opacity:1;" offset="0.316406"/><stop style="stop-color:#c3c3c3;stop-opacity:1;" offset="0.324219"/><stop style="stop-color:#c4c4c4;stop-opacity:1;" offset="0.332031"/><stop style="stop-color:#c5c5c5;stop-opacity:1;" offset="0.339844"/><stop style="stop-color:#c5c5c5;stop-opacity:1;" offset="0.347656"/><stop style="stop-color:#c6c6c6;stop-opacity:1;" offset="0.355469"/><stop style="stop-color:#c7c7c7;stop-opacity:1;" offset="0.363281"/><stop style="stop-color:#c7c7c7;stop-opacity:1;" offset="0.371094"/><stop style="stop-color:#c8c8c8;stop-opacity:1;" offset="0.378906"/><stop style="stop-color:#c9c9c9;stop-opacity:1;" offset="0.386719"/><stop style="stop-color:#c9c9c9;stop-opacity:1;" offset="0.394531"/><stop style="stop-color:#cacaca;stop-opacity:1;" offset="0.402344"/><stop style="stop-color:#cbcbcb;stop-opacity:1;" offset="0.410156"/><stop style="stop-color:#cccccc;stop-opacity:1;" offset="0.417969"/><stop style="stop-color:#cccccc;stop-opacity:1;" offset="0.425781"/><stop style="stop-color:#cdcdcd;stop-opacity:1;" offset="0.433594"/><stop style="stop-color:#cecece;stop-opacity:1;" offset="0.441406"/><stop style="stop-color:#cecece;stop-opacity:1;" offset="0.449219"/><stop style="stop-color:#cfcfcf;stop-opacity:1;" offset="0.457031"/><stop style="stop-color:#d0d0d0;stop-opacity:1;" offset="0.464844"/><stop style="stop-color:#d0d0d0;stop-opacity:1;" offset="0.472656"/><stop style="stop-color:#d1d1d1;stop-opacity:1;" offset="0.480469"/><stop style="stop-color:#d2d2d2;stop-opacity:1;" offset="0.488281"/><stop style="stop-color:#d2d2d2;stop-opacity:1;" offset="0.496094"/><stop style="stop-color:#d3d3d3;stop-opacity:1;" offset="0.503906"/><stop style="stop-color:#d3d3d3;stop-opacity:1;" offset="0.507812"/><stop style="stop-color:#d4d4d4;stop-opacity:1;" offset="0.511719"/><stop style="stop-color:#d4d4d4;stop-opacity:1;" offset="0.515625"/><stop style="stop-color:#d4d4d4;stop-opacity:1;" offset="0.519531"/><stop style="stop-color:#d5d5d5;stop-opacity:1;" offset="0.523438"/><stop style="stop-color:#d5d5d5;stop-opacity:1;" offset="0.527344"/><stop style="stop-color:#d5d5d5;stop-opacity:1;" offset="0.53125"/><stop style="stop-color:#d6d6d6;stop-opacity:1;" offset="0.535156"/><stop style="stop-color:#d6d6d6;stop-opacity:1;" offset="0.539062"/><stop style="stop-color:#d6d6d6;stop-opacity:1;" offset="0.542969"/><stop style="stop-color:#d7d7d7;stop-opacity:1;" offset="0.546875"/><stop style="stop-color:#d7d7d7;stop-opacity:1;" offset="0.550781"/><stop style="stop-color:#d8d8d8;stop-opacity:1;" offset="0.554688"/><stop style="stop-color:#d8d8d8;stop-opacity:1;" offset="0.558594"/><stop style="stop-color:#d8d8d8;stop-opacity:1;" offset="0.5625"/><stop style="stop-color:#d9d9d9;stop-opacity:1;" offset="0.566406"/><stop style="stop-color:#d9d9d9;stop-opacity:1;" offset="0.570312"/><stop style="stop-color:#d9d9d9;stop-opacity:1;" offset="0.574219"/><stop style="stop-color:#dadada;stop-opacity:1;" offset="0.578125"/><stop style="stop-color:#dadada;stop-opacity:1;" offset="0.582031"/><stop style="stop-color:#dadada;stop-opacity:1;" offset="0.585938"/><stop style="stop-color:#dbdbdb;stop-opacity:1;" offset="0.589844"/><stop style="stop-color:#dbdbdb;stop-opacity:1;" offset="0.59375"/><stop style="stop-color:#dbdbdb;stop-opacity:1;" offset="0.597656"/><stop style="stop-color:#dcdcdc;stop-opacity:1;" offset="0.601562"/><stop style="stop-color:#dcdcdc;stop-opacity:1;" offset="0.605469"/><stop style="stop-color:#dcdcdc;stop-opacity:1;" offset="0.609375"/><stop style="stop-color:#dddddd;stop-opacity:1;" offset="0.613281"/><stop style="stop-color:#dddddd;stop-opacity:1;" offset="0.617188"/><stop style="stop-color:#dddddd;stop-opacity:1;" offset="0.621094"/><stop style="stop-color:#dedede;stop-opacity:1;" offset="0.625"/><stop style="stop-color:#dedede;stop-opacity:1;" offset="0.628906"/><stop style="stop-color:#dfdfdf;stop-opacity:1;" offset="0.636719"/><stop style="stop-color:#e0e0e0;stop-opacity:1;" offset="0.644531"/><stop style="stop-color:#e0e0e0;stop-opacity:1;" offset="0.652344"/><stop style="stop-color:#e1e1e1;stop-opacity:1;" offset="0.660156"/><stop style="stop-color:#e2e2e2;stop-opacity:1;" offset="0.667969"/><stop style="stop-color:#e2e2e2;stop-opacity:1;" offset="0.675781"/><stop style="stop-color:#e3e3e3;stop-opacity:1;" offset="0.683594"/><stop style="stop-color:#e4e4e4;stop-opacity:1;" offset="0.691406"/><stop style="stop-color:#e5e5e5;stop-opacity:1;" offset="0.699219"/><stop style="stop-color:#e5e5e5;stop-opacity:1;" offset="0.707031"/><stop style="stop-color:#e6e6e6;stop-opacity:1;" offset="0.714844"/><stop style="stop-color:#e7e7e7;stop-opacity:1;" offset="0.722656"/><stop style="stop-color:#e7e7e7;stop-opacity:1;" offset="0.730469"/><stop style="stop-color:#e8e8e8;stop-opacity:1;" offset="0.738281"/><stop style="stop-color:#e9e9e9;stop-opacity:1;" offset="0.746094"/><stop style="stop-color:#e9e9e9;stop-opacity:1;" offset="0.753906"/><stop style="stop-color:#eaeaea;stop-opacity:1;" offset="0.757812"/><stop style="stop-color:#eaeaea;stop-opacity:1;" offset="0.761719"/><stop style="stop-color:#eaeaea;stop-opacity:1;" offset="0.765625"/><stop style="stop-color:#ebebeb;stop-opacity:1;" offset="0.769531"/><stop style="stop-color:#ebebeb;stop-opacity:1;" offset="0.773438"/><stop style="stop-color:#ebebeb;stop-opacity:1;" offset="0.777344"/><stop style="stop-color:#ececec;stop-opacity:1;" offset="0.78125"/><stop style="stop-color:#ececec;stop-opacity:1;" offset="0.785156"/><stop style="stop-color:#ececec;stop-opacity:1;" offset="0.789062"/><stop style="stop-color:#ededed;stop-opacity:1;" offset="0.792969"/><stop style="stop-color:#ededed;stop-opacity:1;" offset="0.796875"/><stop style="stop-color:#ededed;stop-opacity:1;" offset="0.800781"/><stop style="stop-color:#eeeeee;stop-opacity:1;" offset="0.804688"/><stop style="stop-color:#eeeeee;stop-opacity:1;" offset="0.808594"/><stop style="stop-color:#eeeeee;stop-opacity:1;" offset="0.8125"/><stop style="stop-color:#efefef;stop-opacity:1;" offset="0.816406"/><stop style="stop-color:#f0f0f0;stop-opacity:1;" offset="0.824219"/><stop style="stop-color:#f0f0f0;stop-opacity:1;" offset="0.832031"/><stop style="stop-color:#f1f1f1;stop-opacity:1;" offset="0.839844"/><stop style="stop-color:#f2f2f2;stop-opacity:1;" offset="0.847656"/><stop style="stop-color:#f2f2f2;stop-opacity:1;" offset="0.855469"/><stop style="stop-color:#f3f3f3;stop-opacity:1;" offset="0.863281"/><stop style="stop-color:#f4f4f4;stop-opacity:1;" offset="0.871094"/><stop style="stop-color:#f4f4f4;stop-opacity:1;" offset="0.878906"/><stop style="stop-color:#f5f5f5;stop-opacity:1;" offset="0.882812"/><stop style="stop-color:#f5f5f5;stop-opacity:1;" offset="0.886719"/><stop style="stop-color:#f5f5f5;stop-opacity:1;" offset="0.890625"/><stop style="stop-color:#f6f6f6;stop-opacity:1;" offset="0.894531"/><stop style="stop-color:#f6f6f6;stop-opacity:1;" offset="0.898438"/><stop style="stop-color:#f6f6f6;stop-opacity:1;" offset="0.902344"/><stop style="stop-color:#f7f7f7;stop-opacity:1;" offset="0.90625"/><stop style="stop-color:#f7f7f7;stop-opacity:1;" offset="0.910156"/><stop style="stop-color:#f8f8f8;stop-opacity:1;" offset="0.917969"/><stop style="stop-color:#f9f9f9;stop-opacity:1;" offset="0.925781"/><stop style="stop-color:#f9f9f9;stop-opacity:1;" offset="0.933594"/><stop style="stop-color:#fafafa;stop-opacity:1;" offset="0.941406"/><stop style="stop-color:#fafafa;stop-opacity:1;" offset="0.945312"/><stop style="stop-color:#fbfbfb;stop-opacity:1;" offset="0.949219"/><stop style="stop-color:#fbfbfb;stop-opacity:1;" offset="0.953125"/><stop style="stop-color:#fcfcfc;stop-opacity:1;" offset="0.957031"/><stop style="stop-color:#fcfcfc;stop-opacity:1;" offset="0.964844"/><stop style="stop-color:#fdfdfd;stop-opacity:1;" offset="0.972656"/><stop style="stop-color:#fdfdfd;stop-opacity:1;" offset="0.976562"/><stop style="stop-color:#fefefe;stop-opacity:1;" offset="0.980469"/><stop style="stop-color:#fefefe;stop-opacity:1;" offset="0.988281"/><stop style="stop-color:#ffffff;stop-opacity:1;" offset="0.992188"/><stop style="stop-color:#ffffff;stop-opacity:1;" offset="1"/></radialGradient><clipPath id="990bceb9a9"><path d="M 14.523438 8.550781 L 32 8.550781 L 32 57 L 14.523438 57 Z M 14.523438 8.550781 "/></clipPath><clipPath id="bb6f7eae12"><path d="M 34 17 L 52 17 L 52 66.300781 L 34 66.300781 Z M 34 17 "/></clipPath><clipPath id="cf9b38447b"><path d="M 57 10 L 60.273438 10 L 60.273438 14 L 57 14 Z M 57 10 "/></clipPath></defs><g id="ec19308e8b"><g clip-rule="nonzero" clip-path="url(#0209687809)"><g clip-rule="nonzero" clip-path="url(#b0edb099d5)"><path style=" stroke:none;fill-rule:nonzero;fill:url(#17b8d59740);" d="M 1.835938 1.835938 L 1.835938 73.164062 L 73.164062 73.164062 L 73.164062 1.835938 Z M 1.835938 1.835938 "/></g></g><g clip-rule="nonzero" clip-path="url(#990bceb9a9)"><path style=" stroke:none;fill-rule:nonzero;fill:#393536;fill-opacity:1;" d="M 14.535156 35.679688 L 14.535156 29.65625 C 15.757812 29.589844 16.675781 29.40625 17.296875 29.105469 C 17.914062 28.804688 18.449219 28.296875 18.902344 27.585938 C 19.355469 26.875 19.664062 25.984375 19.832031 24.914062 C 19.964844 24.113281 20.03125 22.714844 20.03125 20.722656 C 20.03125 17.480469 20.183594 15.214844 20.484375 13.9375 C 20.785156 12.65625 21.328125 11.628906 22.113281 10.851562 C 22.902344 10.070312 24.046875 9.457031 25.550781 9.007812 C 26.574219 8.703125 28.179688 8.554688 30.371094 8.554688 L 31.699219 8.554688 L 31.699219 14.550781 C 29.84375 14.550781 28.652344 14.65625 28.125 14.863281 C 27.597656 15.074219 27.207031 15.390625 26.957031 15.816406 C 26.707031 16.246094 26.582031 16.976562 26.582031 18.015625 C 26.582031 19.066406 26.503906 21.066406 26.355469 24.011719 C 26.273438 25.667969 26.054688 27.011719 25.703125 28.039062 C 25.351562 29.066406 24.902344 29.917969 24.359375 30.585938 C 23.816406 31.253906 22.984375 31.949219 21.863281 32.667969 C 22.851562 33.238281 23.65625 33.902344 24.285156 34.664062 C 24.914062 35.425781 25.394531 36.347656 25.726562 37.4375 C 26.0625 38.523438 26.28125 39.980469 26.378906 41.800781 C 26.496094 44.578125 26.554688 46.351562 26.554688 47.121094 C 26.554688 48.226562 26.691406 48.996094 26.957031 49.429688 C 27.226562 49.867188 27.628906 50.195312 28.175781 50.421875 C 28.71875 50.648438 29.894531 50.761719 31.699219 50.761719 L 31.699219 56.78125 L 30.371094 56.78125 C 28.113281 56.78125 26.378906 56.601562 25.175781 56.242188 C 23.972656 55.882812 22.957031 55.285156 22.128906 54.449219 C 21.300781 53.613281 20.742188 52.578125 20.457031 51.351562 C 20.171875 50.121094 20.03125 48.183594 20.03125 45.542969 C 20.03125 42.464844 19.898438 40.464844 19.628906 39.542969 C 19.261719 38.207031 18.707031 37.246094 17.960938 36.671875 C 17.21875 36.09375 16.074219 35.761719 14.535156 35.679688 "/></g><path style=" stroke:none;fill-rule:nonzero;fill:#ff6b00;fill-opacity:1;" d="M 52.605469 21.046875 L 48.675781 21.046875 L 48.675781 17.121094 L 52.605469 17.121094 L 52.605469 21.046875 "/><path style=" stroke:none;fill-rule:nonzero;fill:#ff6b00;fill-opacity:1;" d="M 51.679688 28.902344 L 48.675781 28.902344 L 48.675781 25.902344 L 51.679688 25.902344 L 51.679688 28.902344 "/><g clip-rule="nonzero" clip-path="url(#bb6f7eae12)"><path style=" stroke:none;fill-rule:nonzero;fill:#ff6b00;fill-opacity:1;" d="M 40.253906 24.046875 L 40.253906 21.046875 L 43.253906 21.046875 L 43.253906 24.046875 Z M 47.886719 38.078125 C 47.132812 37.5 46.570312 36.542969 46.203125 35.203125 C 46 34.449219 45.882812 33.003906 45.84375 30.867188 L 43.253906 30.867188 L 43.253906 26.9375 L 45.785156 26.9375 C 45.722656 25.425781 45.589844 24.242188 45.386719 23.398438 C 45.09375 22.167969 44.539062 21.132812 43.71875 20.285156 C 42.898438 19.441406 41.886719 18.84375 40.683594 18.492188 C 39.480469 18.140625 37.75 17.964844 35.488281 17.964844 L 34.160156 17.964844 L 34.160156 23.960938 C 36.050781 23.960938 37.265625 24.074219 37.808594 24.300781 C 38.355469 24.527344 38.730469 24.851562 38.941406 25.269531 C 39.148438 25.6875 39.261719 26.523438 39.277344 27.777344 C 39.363281 31.757812 39.496094 34.335938 39.679688 35.503906 C 39.964844 37.210938 40.5 38.617188 41.285156 39.722656 C 41.855469 40.492188 42.757812 41.277344 43.996094 42.078125 C 43.042969 42.632812 42.257812 43.273438 41.648438 44 C 41.039062 44.726562 40.550781 45.613281 40.179688 46.660156 C 39.8125 47.703125 39.589844 49.097656 39.503906 50.835938 C 39.371094 53.714844 39.300781 55.664062 39.292969 56.683594 C 39.28125 57.703125 39.148438 58.429688 38.890625 58.855469 C 38.628906 59.28125 38.226562 59.609375 37.671875 59.832031 C 37.121094 60.058594 35.949219 60.171875 34.160156 60.171875 L 34.160156 66.195312 L 35.488281 66.195312 C 37.679688 66.195312 39.285156 66.042969 40.308594 65.742188 C 41.828125 65.289062 42.984375 64.675781 43.769531 63.898438 C 44.554688 63.121094 45.09375 62.085938 45.386719 60.800781 C 45.679688 59.511719 45.828125 57.246094 45.828125 54 C 45.828125 52.027344 45.894531 50.636719 46.027344 49.832031 C 46.210938 48.761719 46.527344 47.871094 46.96875 47.160156 C 47.414062 46.449219 47.945312 45.945312 48.5625 45.644531 C 49.179688 45.34375 50.101562 45.15625 51.324219 45.089844 L 51.324219 39.070312 C 49.785156 38.984375 48.636719 38.65625 47.886719 38.078125 "/></g><g clip-rule="nonzero" clip-path="url(#cf9b38447b)"><path style=" stroke:none;fill-rule:nonzero;fill:#ff6b00;fill-opacity:1;" d="M 60.261719 13.417969 L 57.261719 13.417969 L 57.261719 10.417969 L 60.261719 10.417969 L 60.261719 13.417969 "/></g><path style=" stroke:none;fill-rule:nonzero;fill:#ff6b00;fill-opacity:1;" d="M 45.21875 17.121094 L 39.617188 17.121094 L 39.617188 11.519531 L 45.21875 11.519531 L 45.21875 17.121094 "/></g></svg>