<svg xmlns="http://www.w3.org/2000/svg" xmlns:xlink="http://www.w3.org/1999/xlink" width="500" zoomAndPan="magnify" viewBox="0 0 375 374.999991" height="500" preserveAspectRatio="xMidYMid meet" version="1.2"><defs><clipPath id="e1b476b4f4"><path d="M 125.488281 93.261719 L 182.398438 93.261719 L 182.398438 231.96875 L 125.488281 231.96875 Z M 125.488281 93.261719 "/></clipPath><clipPath id="043a18299c"><path d="M 77.457031 114.578125 L 173.523438 114.578125 L 173.523438 210.648438 L 77.457031 210.648438 Z M 77.457031 114.578125 "/></clipPath><clipPath id="1fdd7eca0d"><path d="M 125.488281 114.578125 C 98.960938 114.578125 77.457031 136.085938 77.457031 162.613281 C 77.457031 189.140625 98.960938 210.648438 125.488281 210.648438 C 152.015625 210.648438 173.523438 189.140625 173.523438 162.613281 C 173.523438 136.085938 152.015625 114.578125 125.488281 114.578125 Z M 125.488281 114.578125 "/></clipPath></defs><g id="8d998160f2"><rect x="0" width="375" y="0" height="374.999991" style="fill:#ffffff;fill-opacity:1;stroke:none;"/><rect x="0" width="375" y="0" height="374.999991" style="fill:#000000;fill-opacity:1;stroke:none;"/><g clip-rule="nonzero" clip-path="url(#e1b476b4f4)"><path style=" stroke:none;fill-rule:nonzero;fill:#ffffff;fill-opacity:1;" d="M 125.488281 93.261719 L 182.398438 93.261719 L 182.398438 231.976562 L 125.488281 231.976562 Z M 125.488281 93.261719 "/></g><g clip-rule="nonzero" clip-path="url(#043a18299c)"><g clip-rule="nonzero" clip-path="url(#1fdd7eca0d)"><path style=" stroke:none;fill-rule:nonzero;fill:#ffffff;fill-opacity:1;" d="M 77.457031 114.578125 L 173.523438 114.578125 L 173.523438 210.648438 L 77.457031 210.648438 Z M 77.457031 114.578125 "/></g></g><g style="fill:#ffffff;fill-opacity:1;"><g transform="translate(156.322758, 232.60533)"><path style="stroke:none" d="M 87.25 -85.1875 L 161.0625 -141.3125 L 161.0625 0 L 132.359375 0 L 132.359375 -83.703125 L 87.25 -51.078125 L 42.125 -83.703125 L 42.125 0 L 13.234375 0 L 13.234375 -141.3125 Z M 87.25 -85.1875 "/></g></g><g style="fill:#ffffff;fill-opacity:1;"><g transform="translate(119.953502, 272.414982)"><path style="stroke:none" d="M 17.203125 7.796875 C 16.679688 7.910156 16.070312 8.097656 15.375 8.359375 C 14.6875 8.617188 14.0625 8.929688 13.5 9.296875 C 12.9375 9.660156 12.554688 10.03125 12.359375 10.40625 C 12.003906 11.039062 12.03125 11.566406 12.4375 11.984375 C 12.84375 12.398438 13.421875 12.71875 14.171875 12.9375 C 14.921875 13.15625 15.597656 13.265625 16.203125 13.265625 L 17.203125 13.265625 Z M 19.078125 13 C 19.648438 13 20.410156 12.851562 21.359375 12.5625 C 22.316406 12.28125 23.351562 11.90625 24.46875 11.4375 C 25.582031 10.976562 26.65625 10.492188 27.6875 9.984375 C 28.726562 9.484375 29.609375 9 30.328125 8.53125 C 31.054688 8.070312 31.523438 7.710938 31.734375 7.453125 C 31.328125 7.453125 30.867188 7.394531 30.359375 7.28125 C 29.859375 7.164062 29.40625 7.078125 29 7.015625 C 28.269531 6.898438 27.59375 6.820312 26.96875 6.78125 C 26.351562 6.738281 25.757812 6.71875 25.1875 6.71875 C 24.40625 6.71875 23.609375 6.757812 22.796875 6.84375 C 21.984375 6.9375 21.085938 7.050781 20.109375 7.1875 C 19.648438 7.25 19.367188 7.335938 19.265625 7.453125 C 19.160156 7.566406 19.132812 7.738281 19.1875 7.96875 C 19.25 8.207031 19.253906 8.570312 19.203125 9.0625 Z M 33.5 6.328125 C 33.5 6.328125 33.617188 6.234375 33.859375 6.046875 C 34.109375 5.859375 34.367188 5.660156 34.640625 5.453125 C 34.921875 5.253906 35.09375 5.140625 35.15625 5.109375 L 37.3125 3.25 C 37.488281 3.101562 37.617188 2.992188 37.703125 2.921875 C 37.796875 2.847656 37.925781 2.753906 38.09375 2.640625 C 38.332031 2.472656 38.660156 2.171875 39.078125 1.734375 C 39.492188 1.296875 39.941406 0.8125 40.421875 0.28125 C 40.898438 -0.25 41.347656 -0.753906 41.765625 -1.234375 C 42.179688 -1.710938 42.476562 -2.066406 42.65625 -2.296875 C 42.769531 -2.441406 42.867188 -2.5625 42.953125 -2.65625 C 43.035156 -2.757812 43.132812 -2.882812 43.25 -3.03125 C 43.832031 -3.78125 44.40625 -4.597656 44.96875 -5.484375 C 45.53125 -6.367188 46.046875 -7.210938 46.515625 -8.015625 C 47.285156 -9.378906 47.972656 -10.941406 48.578125 -12.703125 C 49.191406 -14.460938 49.613281 -16.273438 49.84375 -18.140625 C 50.070312 -20.003906 50.050781 -21.804688 49.78125 -23.546875 C 49.507812 -25.296875 48.890625 -26.863281 47.921875 -28.25 C 46.953125 -29.644531 45.554688 -30.71875 43.734375 -31.46875 C 42.835938 -31.875 41.910156 -32.148438 40.953125 -32.296875 C 40.003906 -32.441406 39.050781 -32.515625 38.09375 -32.515625 C 36.769531 -32.515625 35.460938 -32.394531 34.171875 -32.15625 C 32.890625 -31.925781 31.65625 -31.640625 30.46875 -31.296875 L 26.140625 -29.78125 C 25.242188 -29.375 24.582031 -29.078125 24.15625 -28.890625 C 23.738281 -28.703125 23.460938 -28.5 23.328125 -28.28125 C 23.203125 -28.0625 23.082031 -27.679688 22.96875 -27.140625 C 22.65625 -25.398438 22.351562 -23.800781 22.0625 -22.34375 C 21.769531 -20.882812 21.476562 -19.257812 21.1875 -17.46875 C 20.9375 -15.875 20.742188 -14.390625 20.609375 -13.015625 C 20.484375 -11.648438 20.316406 -10.242188 20.109375 -8.796875 L 19.5 0.265625 C 19.53125 1.816406 19.492188 3 19.390625 3.8125 C 19.296875 4.625 19.234375 5.164062 19.203125 5.4375 C 19.171875 5.707031 19.257812 5.84375 19.46875 5.84375 C 19.582031 5.84375 19.722656 5.820312 19.890625 5.78125 C 20.066406 5.738281 20.300781 5.703125 20.59375 5.671875 C 21.34375 5.554688 22.0625 5.476562 22.75 5.4375 C 23.445312 5.394531 24.113281 5.375 24.75 5.375 C 25.90625 5.375 27.039062 5.429688 28.15625 5.546875 C 29.269531 5.660156 30.460938 5.832031 31.734375 6.0625 C 32.046875 6.125 32.320312 6.179688 32.5625 6.234375 C 32.8125 6.296875 33.125 6.328125 33.5 6.328125 Z M 23.84375 -30.640625 C 24.15625 -30.640625 24.441406 -30.710938 24.703125 -30.859375 C 24.960938 -31.003906 25.238281 -31.132812 25.53125 -31.25 L 30.46875 -33.109375 C 31.65625 -33.460938 32.890625 -33.742188 34.171875 -33.953125 C 35.460938 -34.171875 36.757812 -34.28125 38.0625 -34.28125 C 39.9375 -34.28125 41.769531 -34 43.5625 -33.4375 C 45.351562 -32.875 46.910156 -31.914062 48.234375 -30.5625 C 49.535156 -29.257812 50.472656 -27.773438 51.046875 -26.109375 C 51.628906 -24.453125 51.925781 -22.71875 51.9375 -20.90625 C 51.957031 -19.101562 51.765625 -17.347656 51.359375 -15.640625 C 50.640625 -12.578125 49.609375 -9.828125 48.265625 -7.390625 C 46.921875 -4.953125 45.265625 -2.578125 43.296875 -0.265625 L 42 1.171875 C 41.800781 1.429688 41.46875 1.796875 41 2.265625 C 40.539062 2.742188 40.078125 3.207031 39.609375 3.65625 C 39.148438 4.101562 38.804688 4.414062 38.578125 4.59375 C 38.316406 4.789062 38.0625 4.988281 37.8125 5.1875 C 37.570312 5.394531 37.320312 5.613281 37.0625 5.84375 C 36.6875 6.101562 36.378906 6.320312 36.140625 6.5 C 35.910156 6.675781 35.753906 6.90625 35.671875 7.1875 C 36.128906 7.28125 36.5625 7.484375 36.96875 7.796875 C 37.375 8.117188 37.625 8.46875 37.71875 8.84375 C 37.820312 9.21875 37.644531 9.5625 37.1875 9.875 C 36.894531 9.675781 36.710938 9.484375 36.640625 9.296875 C 36.566406 9.109375 36.332031 8.914062 35.9375 8.71875 C 35.1875 8.34375 34.648438 8.15625 34.328125 8.15625 C 34.035156 8.15625 33.765625 8.25 33.515625 8.4375 C 33.273438 8.625 32.910156 8.875 32.421875 9.1875 C 31.609375 9.707031 30.675781 10.253906 29.625 10.828125 C 28.570312 11.410156 27.492188 11.945312 26.390625 12.4375 C 25.296875 12.925781 24.285156 13.316406 23.359375 13.609375 C 23.066406 13.722656 22.644531 13.859375 22.09375 14.015625 C 21.550781 14.179688 21 14.320312 20.4375 14.4375 C 19.875 14.550781 19.40625 14.625 19.03125 14.65625 L 19.203125 18.125 C 19.234375 18.257812 19.175781 18.390625 19.03125 18.515625 C 18.882812 18.648438 18.707031 18.71875 18.5 18.71875 C 18.332031 18.71875 18.160156 18.644531 17.984375 18.5 C 17.816406 18.363281 17.660156 18.109375 17.515625 17.734375 C 17.421875 17.410156 17.367188 17.132812 17.359375 16.90625 C 17.347656 16.675781 17.328125 16.382812 17.296875 16.03125 C 17.234375 15.488281 17.164062 15.132812 17.09375 14.96875 C 17.019531 14.8125 16.898438 14.734375 16.734375 14.734375 C 16.617188 14.734375 16.492188 14.738281 16.359375 14.75 C 16.234375 14.769531 16.066406 14.78125 15.859375 14.78125 C 15.222656 14.78125 14.5 14.648438 13.6875 14.390625 C 12.882812 14.128906 12.1875 13.742188 11.59375 13.234375 C 11 12.734375 10.703125 12.109375 10.703125 11.359375 C 10.703125 10.398438 10.960938 9.628906 11.484375 9.046875 C 12.003906 8.472656 12.640625 8.019531 13.390625 7.6875 C 14.140625 7.351562 14.875 7.070312 15.59375 6.84375 C 16.320312 6.613281 16.90625 6.398438 17.34375 6.203125 C 17.34375 5.390625 17.363281 4.632812 17.40625 3.9375 C 17.445312 3.25 17.46875 2.53125 17.46875 1.78125 C 17.46875 1.082031 17.515625 0.34375 17.609375 -0.4375 C 17.710938 -1.21875 17.765625 -1.953125 17.765625 -2.640625 C 17.765625 -3.335938 17.800781 -4.25 17.875 -5.375 C 17.945312 -6.5 18.046875 -7.734375 18.171875 -9.078125 C 18.304688 -10.421875 18.445312 -11.765625 18.59375 -13.109375 C 18.738281 -14.453125 18.882812 -15.679688 19.03125 -16.796875 C 19.175781 -17.910156 19.304688 -18.785156 19.421875 -19.421875 L 20.984375 -27.046875 C 20.484375 -26.785156 19.847656 -26.394531 19.078125 -25.875 C 18.316406 -25.351562 17.519531 -24.773438 16.6875 -24.140625 C 15.851562 -23.503906 15.066406 -22.875 14.328125 -22.25 C 13.585938 -21.632812 13 -21.109375 12.5625 -20.671875 L 9.703125 -17.640625 C 8.804688 -16.628906 7.832031 -15.398438 6.78125 -13.953125 C 5.726562 -12.515625 4.722656 -10.984375 3.765625 -9.359375 C 2.816406 -7.742188 2.03125 -6.144531 1.40625 -4.5625 C 0.789062 -2.988281 0.484375 -1.554688 0.484375 -0.265625 C 0.484375 0.429688 0.566406 0.921875 0.734375 1.203125 C 0.910156 1.492188 1.113281 1.675781 1.34375 1.75 C 1.570312 1.820312 1.78125 1.878906 1.96875 1.921875 C 2.15625 1.972656 2.28125 2.128906 2.34375 2.390625 C 2.425781 2.785156 2.191406 2.984375 1.640625 2.984375 C 1.179688 2.984375 0.648438 2.726562 0.046875 2.21875 C -0.554688 1.71875 -0.859375 0.890625 -0.859375 -0.265625 C -0.859375 -1.242188 -0.691406 -2.300781 -0.359375 -3.4375 C -0.0351562 -4.582031 0.375 -5.722656 0.875 -6.859375 C 1.382812 -8.003906 1.925781 -9.085938 2.5 -10.109375 C 3.082031 -11.140625 3.625 -12.019531 4.125 -12.75 C 5.070312 -14.1875 5.984375 -15.445312 6.859375 -16.53125 C 7.742188 -17.613281 8.660156 -18.660156 9.609375 -19.671875 C 10.566406 -20.679688 11.640625 -21.78125 12.828125 -22.96875 C 13.929688 -23.925781 15.046875 -24.851562 16.171875 -25.75 C 17.296875 -26.644531 18.476562 -27.46875 19.71875 -28.21875 C 20.15625 -28.445312 20.5625 -28.671875 20.9375 -28.890625 C 21.3125 -29.109375 21.554688 -29.359375 21.671875 -29.640625 C 21.867188 -30.046875 22.03125 -30.4375 22.15625 -30.8125 C 22.289062 -31.1875 22.617188 -31.429688 23.140625 -31.546875 C 23.429688 -31.410156 23.617188 -31.316406 23.703125 -31.265625 C 23.796875 -31.222656 23.84375 -31.015625 23.84375 -30.640625 Z M 23.84375 -30.640625 "/></g></g><g style="fill:#ffffff;fill-opacity:1;"><g transform="translate(170.526508, 272.414982)"><path style="stroke:none" d="M 2 -7.84375 C 2.539062 -8.132812 3.144531 -8.53125 3.8125 -9.03125 C 4.476562 -9.539062 4.835938 -10.144531 4.890625 -10.84375 C 4.515625 -10.78125 4.117188 -10.570312 3.703125 -10.21875 C 3.285156 -9.875 2.925781 -9.484375 2.625 -9.046875 C 2.320312 -8.617188 2.113281 -8.21875 2 -7.84375 Z M 0.046875 -6.8125 C 0.046875 -7.53125 0.28125 -8.304688 0.75 -9.140625 C 1.226562 -9.984375 1.820312 -10.695312 2.53125 -11.28125 C 3.238281 -11.875 3.941406 -12.171875 4.640625 -12.171875 C 5.585938 -12.171875 6.082031 -11.8125 6.125 -11.09375 C 6.175781 -10.375 5.867188 -9.59375 5.203125 -8.75 C 4.859375 -8.375 4.335938 -7.941406 3.640625 -7.453125 C 2.941406 -6.960938 2.265625 -6.6875 1.609375 -6.625 C 1.609375 -6.164062 1.617188 -5.753906 1.640625 -5.390625 C 1.671875 -5.035156 1.875 -4.671875 2.25 -4.296875 C 2.625 -3.921875 3.101562 -3.734375 3.6875 -3.734375 C 4.4375 -3.734375 5.210938 -3.96875 6.015625 -4.4375 C 6.828125 -4.914062 7.453125 -5.316406 7.890625 -5.640625 C 8.066406 -5.773438 8.203125 -5.882812 8.296875 -5.96875 C 8.398438 -6.0625 8.523438 -6.164062 8.671875 -6.28125 C 9.273438 -6.75 9.65625 -7.085938 9.8125 -7.296875 C 9.976562 -7.515625 10.117188 -7.660156 10.234375 -7.734375 C 10.347656 -7.804688 10.617188 -7.84375 11.046875 -7.84375 C 11.109375 -7.53125 11.128906 -7.3125 11.109375 -7.1875 C 11.097656 -7.070312 10.992188 -6.898438 10.796875 -6.671875 C 10.273438 -6.148438 9.613281 -5.554688 8.8125 -4.890625 C 8.019531 -4.234375 7.164062 -3.65625 6.25 -3.15625 C 5.34375 -2.664062 4.441406 -2.421875 3.546875 -2.421875 C 3.085938 -2.421875 2.648438 -2.5 2.234375 -2.65625 C 1.816406 -2.820312 1.421875 -3.09375 1.046875 -3.46875 C 0.523438 -3.988281 0.226562 -4.519531 0.15625 -5.0625 C 0.0820312 -5.613281 0.046875 -6.195312 0.046875 -6.8125 Z M 0.046875 -6.8125 "/></g></g><g style="fill:#ffffff;fill-opacity:1;"><g transform="translate(179.930404, 272.414982)"><path style="stroke:none" d="M 0.046875 -4.71875 C 0.046875 -5.15625 0.09375 -5.769531 0.1875 -6.5625 C 0.289062 -7.363281 0.4375 -8.175781 0.625 -9 C 0.8125 -9.820312 1.035156 -10.519531 1.296875 -11.09375 C 1.554688 -11.675781 1.847656 -11.96875 2.171875 -11.96875 C 2.367188 -11.96875 2.492188 -11.953125 2.546875 -11.921875 C 2.609375 -11.890625 2.710938 -11.859375 2.859375 -11.828125 C 3.085938 -11.335938 3.109375 -10.71875 2.921875 -9.96875 C 2.734375 -9.21875 2.566406 -8.394531 2.421875 -7.5 C 2.222656 -6.226562 2.054688 -5.097656 1.921875 -4.109375 C 1.796875 -3.128906 1.878906 -2.019531 2.171875 -0.78125 C 2.597656 -0.894531 3.039062 -1.253906 3.5 -1.859375 C 3.96875 -2.472656 4.425781 -3.191406 4.875 -4.015625 C 5.320312 -4.835938 5.710938 -5.613281 6.046875 -6.34375 C 6.378906 -7.082031 6.632812 -7.640625 6.8125 -8.015625 C 6.945312 -8.304688 7.085938 -8.640625 7.234375 -9.015625 C 7.378906 -9.390625 7.550781 -9.726562 7.75 -10.03125 C 7.957031 -10.332031 8.191406 -10.484375 8.453125 -10.484375 C 8.742188 -10.484375 8.890625 -10.332031 8.890625 -10.03125 C 8.890625 -9.726562 8.804688 -9.359375 8.640625 -8.921875 C 8.484375 -8.492188 8.3125 -8.0625 8.125 -7.625 C 7.9375 -7.195312 7.785156 -6.863281 7.671875 -6.625 C 7.492188 -6.28125 7.21875 -5.703125 6.84375 -4.890625 C 6.46875 -4.085938 6.023438 -3.238281 5.515625 -2.34375 C 5.015625 -1.445312 4.46875 -0.6875 3.875 -0.0625 C 3.28125 0.550781 2.695312 0.859375 2.125 0.859375 C 1.71875 0.859375 1.328125 0.671875 0.953125 0.296875 C 0.578125 -0.078125 0.332031 -0.554688 0.21875 -1.140625 C 0.101562 -1.734375 0.046875 -2.351562 0.046875 -3 C 0.046875 -3.65625 0.046875 -4.226562 0.046875 -4.71875 Z M 0.046875 -4.71875 "/></g></g><g style="fill:#ffffff;fill-opacity:1;"><g transform="translate(189.247622, 272.414982)"><path style="stroke:none" d="M 2 -7.84375 C 2.539062 -8.132812 3.144531 -8.53125 3.8125 -9.03125 C 4.476562 -9.539062 4.835938 -10.144531 4.890625 -10.84375 C 4.515625 -10.78125 4.117188 -10.570312 3.703125 -10.21875 C 3.285156 -9.875 2.925781 -9.484375 2.625 -9.046875 C 2.320312 -8.617188 2.113281 -8.21875 2 -7.84375 Z M 0.046875 -6.8125 C 0.046875 -7.53125 0.28125 -8.304688 0.75 -9.140625 C 1.226562 -9.984375 1.820312 -10.695312 2.53125 -11.28125 C 3.238281 -11.875 3.941406 -12.171875 4.640625 -12.171875 C 5.585938 -12.171875 6.082031 -11.8125 6.125 -11.09375 C 6.175781 -10.375 5.867188 -9.59375 5.203125 -8.75 C 4.859375 -8.375 4.335938 -7.941406 3.640625 -7.453125 C 2.941406 -6.960938 2.265625 -6.6875 1.609375 -6.625 C 1.609375 -6.164062 1.617188 -5.753906 1.640625 -5.390625 C 1.671875 -5.035156 1.875 -4.671875 2.25 -4.296875 C 2.625 -3.921875 3.101562 -3.734375 3.6875 -3.734375 C 4.4375 -3.734375 5.210938 -3.96875 6.015625 -4.4375 C 6.828125 -4.914062 7.453125 -5.316406 7.890625 -5.640625 C 8.066406 -5.773438 8.203125 -5.882812 8.296875 -5.96875 C 8.398438 -6.0625 8.523438 -6.164062 8.671875 -6.28125 C 9.273438 -6.75 9.65625 -7.085938 9.8125 -7.296875 C 9.976562 -7.515625 10.117188 -7.660156 10.234375 -7.734375 C 10.347656 -7.804688 10.617188 -7.84375 11.046875 -7.84375 C 11.109375 -7.53125 11.128906 -7.3125 11.109375 -7.1875 C 11.097656 -7.070312 10.992188 -6.898438 10.796875 -6.671875 C 10.273438 -6.148438 9.613281 -5.554688 8.8125 -4.890625 C 8.019531 -4.234375 7.164062 -3.65625 6.25 -3.15625 C 5.34375 -2.664062 4.441406 -2.421875 3.546875 -2.421875 C 3.085938 -2.421875 2.648438 -2.5 2.234375 -2.65625 C 1.816406 -2.820312 1.421875 -3.09375 1.046875 -3.46875 C 0.523438 -3.988281 0.226562 -4.519531 0.15625 -5.0625 C 0.0820312 -5.613281 0.046875 -6.195312 0.046875 -6.8125 Z M 0.046875 -6.8125 "/></g></g><g style="fill:#ffffff;fill-opacity:1;"><g transform="translate(198.651518, 272.414982)"><path style="stroke:none" d="M 0.09375 -3.34375 C 0.09375 -4.78125 0.175781 -6.335938 0.34375 -8.015625 C 0.519531 -9.691406 0.75 -11.351562 1.03125 -13 C 1.320312 -14.644531 1.644531 -16.132812 2 -17.46875 C 2.132812 -17.90625 2.273438 -18.390625 2.421875 -18.921875 C 2.566406 -19.453125 2.753906 -19.910156 2.984375 -20.296875 C 3.222656 -20.691406 3.53125 -20.890625 3.90625 -20.890625 C 4.25 -20.890625 4.460938 -20.757812 4.546875 -20.5 C 4.640625 -20.238281 4.648438 -19.925781 4.578125 -19.5625 C 4.503906 -19.207031 4.410156 -18.878906 4.296875 -18.578125 C 4.179688 -18.273438 4.109375 -18.0625 4.078125 -17.9375 C 3.847656 -17.070312 3.578125 -15.894531 3.265625 -14.40625 C 2.960938 -12.914062 2.675781 -11.289062 2.40625 -9.53125 C 2.132812 -7.769531 1.925781 -6.019531 1.78125 -4.28125 C 1.632812 -2.550781 1.601562 -0.988281 1.6875 0.40625 C 1.78125 1.8125 2.015625 2.890625 2.390625 3.640625 C 2.878906 3.378906 3.28125 2.988281 3.59375 2.46875 C 3.914062 1.945312 4.191406 1.441406 4.421875 0.953125 C 5.085938 -0.316406 5.738281 -1.660156 6.375 -3.078125 C 7.007812 -4.492188 7.671875 -5.820312 8.359375 -7.0625 C 8.597656 -7.53125 8.847656 -7.765625 9.109375 -7.765625 C 9.222656 -7.765625 9.316406 -7.710938 9.390625 -7.609375 C 9.460938 -7.503906 9.5 -7.394531 9.5 -7.28125 C 9.5 -7.195312 9.378906 -6.921875 9.140625 -6.453125 C 8.910156 -5.992188 8.671875 -5.519531 8.421875 -5.03125 C 8.179688 -4.539062 8.019531 -4.222656 7.9375 -4.078125 C 7.644531 -3.472656 7.316406 -2.765625 6.953125 -1.953125 C 6.597656 -1.140625 6.242188 -0.34375 5.890625 0.4375 C 5.546875 1.21875 5.210938 1.878906 4.890625 2.421875 C 4.753906 2.660156 4.5625 2.972656 4.3125 3.359375 C 4.0625 3.742188 3.789062 4.082031 3.5 4.375 C 3.21875 4.664062 2.890625 4.8125 2.515625 4.8125 C 1.929688 4.8125 1.472656 4.519531 1.140625 3.9375 C 0.816406 3.363281 0.582031 2.644531 0.4375 1.78125 C 0.289062 0.914062 0.195312 0.0195312 0.15625 -0.90625 C 0.113281 -1.832031 0.09375 -2.644531 0.09375 -3.34375 Z M 0.09375 -3.34375 "/></g></g><g style="fill:#ffffff;fill-opacity:1;"><g transform="translate(206.278638, 272.414982)"><path style="stroke:none" d="M 2.171875 -1 C 2.597656 -1.113281 2.984375 -1.492188 3.328125 -2.140625 C 3.679688 -2.796875 3.929688 -3.539062 4.078125 -4.375 C 4.222656 -5.21875 4.257812 -5.992188 4.1875 -6.703125 C 4.113281 -7.410156 3.890625 -7.894531 3.515625 -8.15625 C 3.421875 -7.832031 3.257812 -7.375 3.03125 -6.78125 C 2.800781 -6.1875 2.578125 -5.535156 2.359375 -4.828125 C 2.140625 -4.117188 1.992188 -3.425781 1.921875 -2.75 C 1.859375 -2.070312 1.941406 -1.488281 2.171875 -1 Z M 0 -2.46875 C 0 -2.84375 0.078125 -3.398438 0.234375 -4.140625 C 0.398438 -4.878906 0.625 -5.671875 0.90625 -6.515625 C 1.195312 -7.367188 1.519531 -8.175781 1.875 -8.9375 C 2.238281 -9.707031 2.628906 -10.335938 3.046875 -10.828125 C 3.472656 -11.328125 3.898438 -11.578125 4.328125 -11.578125 C 4.617188 -11.578125 4.820312 -11.445312 4.9375 -11.1875 C 5.050781 -10.925781 5.082031 -10.707031 5.03125 -10.53125 C 4.96875 -10.382812 4.859375 -10.238281 4.703125 -10.09375 C 4.546875 -9.945312 4.410156 -9.789062 4.296875 -9.625 C 4.347656 -9.414062 4.488281 -9.1875 4.71875 -8.9375 C 4.957031 -8.695312 5.191406 -8.375 5.421875 -7.96875 C 5.648438 -7.570312 5.800781 -7.023438 5.875 -6.328125 C 5.945312 -5.628906 5.867188 -4.71875 5.640625 -3.59375 C 5.316406 -2.09375 4.804688 -0.96875 4.109375 -0.21875 C 3.421875 0.53125 2.742188 0.90625 2.078125 0.90625 C 1.523438 0.90625 1.039062 0.625 0.625 0.0625 C 0.207031 -0.5 0 -1.34375 0 -2.46875 Z M 0 -2.46875 "/></g></g><g style="fill:#ffffff;fill-opacity:1;"><g transform="translate(213.905758, 272.414982)"><path style="stroke:none" d="M 2.984375 2.6875 C 3.484375 2.425781 3.984375 2.035156 4.484375 1.515625 C 4.992188 0.992188 5.441406 0.445312 5.828125 -0.125 C 6.222656 -0.707031 6.476562 -1.210938 6.59375 -1.640625 L 4.421875 0.21875 C 4.078125 0.53125 3.820312 0.765625 3.65625 0.921875 C 3.5 1.085938 3.382812 1.285156 3.3125 1.515625 C 3.238281 1.742188 3.128906 2.132812 2.984375 2.6875 Z M 4.078125 -1.125 C 4.222656 -1.207031 4.304688 -1.269531 4.328125 -1.3125 C 4.359375 -1.363281 4.429688 -1.445312 4.546875 -1.5625 C 4.722656 -1.675781 4.882812 -1.789062 5.03125 -1.90625 C 5.664062 -2.457031 6.148438 -2.863281 6.484375 -3.125 C 6.816406 -3.382812 7.046875 -3.597656 7.171875 -3.765625 C 7.304688 -3.941406 7.378906 -4.144531 7.390625 -4.375 C 7.398438 -4.601562 7.40625 -4.96875 7.40625 -5.46875 C 7.40625 -6.125 7.273438 -6.453125 7.015625 -6.453125 C 6.816406 -6.453125 6.554688 -6.253906 6.234375 -5.859375 C 5.921875 -5.472656 5.601562 -4.984375 5.28125 -4.390625 C 4.96875 -3.804688 4.695312 -3.21875 4.46875 -2.625 C 4.238281 -2.03125 4.109375 -1.53125 4.078125 -1.125 Z M 0 -0.171875 C 0 -0.515625 0.0234375 -1.1875 0.078125 -2.1875 C 0.140625 -3.1875 0.234375 -4.328125 0.359375 -5.609375 C 0.492188 -6.898438 0.660156 -8.144531 0.859375 -9.34375 C 1.066406 -10.539062 1.3125 -11.535156 1.59375 -12.328125 C 1.882812 -13.117188 2.21875 -13.515625 2.59375 -13.515625 C 2.800781 -13.515625 3.003906 -13.457031 3.203125 -13.34375 C 3.296875 -13.03125 3.34375 -12.800781 3.34375 -12.65625 C 3.34375 -12.507812 3.316406 -12.347656 3.265625 -12.171875 C 3.222656 -12.003906 3.144531 -11.675781 3.03125 -11.1875 C 2.625 -9.132812 2.328125 -7.117188 2.140625 -5.140625 C 1.953125 -3.160156 1.859375 -1.085938 1.859375 1.078125 C 2.066406 0.929688 2.273438 0.535156 2.484375 -0.109375 C 2.703125 -0.753906 2.957031 -1.503906 3.25 -2.359375 C 3.539062 -3.210938 3.859375 -4.054688 4.203125 -4.890625 C 4.546875 -5.734375 4.945312 -6.425781 5.40625 -6.96875 C 5.875 -7.519531 6.410156 -7.796875 7.015625 -7.796875 C 7.648438 -7.796875 8.117188 -7.5 8.421875 -6.90625 C 8.734375 -6.320312 8.890625 -5.722656 8.890625 -5.109375 C 9.054688 -5.171875 9.253906 -5.28125 9.484375 -5.4375 C 9.722656 -5.59375 9.925781 -5.726562 10.09375 -5.84375 C 10.382812 -6.050781 10.722656 -6.296875 11.109375 -6.578125 C 11.503906 -6.867188 11.890625 -7.128906 12.265625 -7.359375 C 12.640625 -7.597656 12.941406 -7.71875 13.171875 -7.71875 C 13.429688 -7.71875 13.5625 -7.539062 13.5625 -7.1875 C 13.5625 -7.050781 13.34375 -6.804688 12.90625 -6.453125 C 12.476562 -6.109375 11.972656 -5.734375 11.390625 -5.328125 C 10.816406 -4.921875 10.273438 -4.546875 9.765625 -4.203125 C 9.265625 -3.859375 8.941406 -3.597656 8.796875 -3.421875 C 8.710938 -3.304688 8.578125 -2.976562 8.390625 -2.4375 C 8.203125 -1.90625 7.941406 -1.269531 7.609375 -0.53125 C 7.273438 0.195312 6.828125 0.929688 6.265625 1.671875 C 5.703125 2.410156 4.972656 3.035156 4.078125 3.546875 C 3.898438 3.640625 3.703125 3.726562 3.484375 3.8125 C 3.273438 3.894531 3.097656 4 2.953125 4.125 C 2.742188 4.238281 2.570312 4.582031 2.4375 5.15625 C 2.3125 5.738281 2.21875 6.332031 2.15625 6.9375 C 2.101562 7.539062 2.078125 7.972656 2.078125 8.234375 C 2.078125 8.753906 2.113281 9.320312 2.1875 9.9375 C 2.257812 10.5625 2.28125 11.085938 2.25 11.515625 C 2.21875 11.953125 2.046875 12.171875 1.734375 12.171875 C 1.410156 12.171875 1.21875 12.070312 1.15625 11.875 C 1.101562 11.675781 1.050781 11.390625 1 11.015625 C 0.738281 9.191406 0.503906 7.332031 0.296875 5.4375 C 0.0976562 3.539062 0 1.671875 0 -0.171875 Z M 0 -0.171875 "/></g></g><g style="fill:#ffffff;fill-opacity:1;"><g transform="translate(226.039814, 272.414982)"><path style="stroke:none" d="M 2 -7.84375 C 2.539062 -8.132812 3.144531 -8.53125 3.8125 -9.03125 C 4.476562 -9.539062 4.835938 -10.144531 4.890625 -10.84375 C 4.515625 -10.78125 4.117188 -10.570312 3.703125 -10.21875 C 3.285156 -9.875 2.925781 -9.484375 2.625 -9.046875 C 2.320312 -8.617188 2.113281 -8.21875 2 -7.84375 Z M 0.046875 -6.8125 C 0.046875 -7.53125 0.28125 -8.304688 0.75 -9.140625 C 1.226562 -9.984375 1.820312 -10.695312 2.53125 -11.28125 C 3.238281 -11.875 3.941406 -12.171875 4.640625 -12.171875 C 5.585938 -12.171875 6.082031 -11.8125 6.125 -11.09375 C 6.175781 -10.375 5.867188 -9.59375 5.203125 -8.75 C 4.859375 -8.375 4.335938 -7.941406 3.640625 -7.453125 C 2.941406 -6.960938 2.265625 -6.6875 1.609375 -6.625 C 1.609375 -6.164062 1.617188 -5.753906 1.640625 -5.390625 C 1.671875 -5.035156 1.875 -4.671875 2.25 -4.296875 C 2.625 -3.921875 3.101562 -3.734375 3.6875 -3.734375 C 4.4375 -3.734375 5.210938 -3.96875 6.015625 -4.4375 C 6.828125 -4.914062 7.453125 -5.316406 7.890625 -5.640625 C 8.066406 -5.773438 8.203125 -5.882812 8.296875 -5.96875 C 8.398438 -6.0625 8.523438 -6.164062 8.671875 -6.28125 C 9.273438 -6.75 9.65625 -7.085938 9.8125 -7.296875 C 9.976562 -7.515625 10.117188 -7.660156 10.234375 -7.734375 C 10.347656 -7.804688 10.617188 -7.84375 11.046875 -7.84375 C 11.109375 -7.53125 11.128906 -7.3125 11.109375 -7.1875 C 11.097656 -7.070312 10.992188 -6.898438 10.796875 -6.671875 C 10.273438 -6.148438 9.613281 -5.554688 8.8125 -4.890625 C 8.019531 -4.234375 7.164062 -3.65625 6.25 -3.15625 C 5.34375 -2.664062 4.441406 -2.421875 3.546875 -2.421875 C 3.085938 -2.421875 2.648438 -2.5 2.234375 -2.65625 C 1.816406 -2.820312 1.421875 -3.09375 1.046875 -3.46875 C 0.523438 -3.988281 0.226562 -4.519531 0.15625 -5.0625 C 0.0820312 -5.613281 0.046875 -6.195312 0.046875 -6.8125 Z M 0.046875 -6.8125 "/></g></g><g style="fill:#ffffff;fill-opacity:1;"><g transform="translate(235.443709, 272.414982)"><path style="stroke:none" d="M 0.609375 -0.171875 C 0.316406 -0.171875 0.140625 -0.347656 0.078125 -0.703125 C 0.0234375 -1.066406 0.015625 -1.453125 0.046875 -1.859375 C 0.078125 -2.265625 0.09375 -2.507812 0.09375 -2.59375 C 0.0625 -3.113281 0.0507812 -3.640625 0.0625 -4.171875 C 0.0820312 -4.710938 0.078125 -5.257812 0.046875 -5.8125 C 0.046875 -6.007812 0.0507812 -6.390625 0.0625 -6.953125 C 0.0820312 -7.515625 0.125 -8.113281 0.1875 -8.75 C 0.257812 -9.382812 0.367188 -9.929688 0.515625 -10.390625 C 0.660156 -10.859375 0.847656 -11.09375 1.078125 -11.09375 C 1.660156 -11.09375 1.957031 -10.90625 1.96875 -10.53125 C 1.988281 -10.15625 1.96875 -9.664062 1.90625 -9.0625 C 1.875 -8.851562 1.859375 -8.625 1.859375 -8.375 C 1.859375 -8.132812 1.859375 -7.898438 1.859375 -7.671875 C 1.859375 -7.378906 1.84375 -7.191406 1.8125 -7.109375 C 1.789062 -7.023438 1.78125 -6.835938 1.78125 -6.546875 C 2.09375 -6.773438 2.378906 -7.039062 2.640625 -7.34375 C 2.898438 -7.644531 3.363281 -7.796875 4.03125 -7.796875 C 4.226562 -7.796875 4.492188 -7.800781 4.828125 -7.8125 C 5.160156 -7.832031 5.515625 -7.84375 5.890625 -7.84375 C 6.523438 -7.84375 7.117188 -7.804688 7.671875 -7.734375 C 8.222656 -7.660156 8.5 -7.476562 8.5 -7.1875 C 8.5 -6.90625 8.34375 -6.71875 8.03125 -6.625 C 7.726562 -6.539062 7.363281 -6.5 6.9375 -6.5 C 6.644531 -6.5 6.347656 -6.503906 6.046875 -6.515625 C 5.742188 -6.535156 5.476562 -6.546875 5.25 -6.546875 C 4.4375 -6.546875 3.890625 -6.5 3.609375 -6.40625 C 3.335938 -6.320312 3.03125 -5.992188 2.6875 -5.421875 C 2.488281 -5.046875 2.296875 -4.640625 2.109375 -4.203125 C 1.921875 -3.765625 1.78125 -3.289062 1.6875 -2.78125 C 1.601562 -2.394531 1.566406 -2 1.578125 -1.59375 C 1.597656 -1.195312 1.554688 -0.859375 1.453125 -0.578125 C 1.347656 -0.304688 1.066406 -0.171875 0.609375 -0.171875 Z M 0.609375 -0.171875 "/></g></g><g style="fill:#ffffff;fill-opacity:1;"><g transform="translate(242.50746, 272.414982)"><path style="stroke:none" d="M 0.515625 7.15625 C 0.515625 7.757812 0.703125 8.0625 1.078125 8.0625 C 1.285156 8.0625 1.503906 7.988281 1.734375 7.84375 C 1.960938 7.695312 2.148438 7.566406 2.296875 7.453125 C 2.878906 7.023438 3.390625 6.367188 3.828125 5.484375 C 4.273438 4.597656 4.601562 3.796875 4.8125 3.078125 C 4.957031 2.585938 5.035156 2.085938 5.046875 1.578125 C 5.066406 1.078125 5.078125 0.519531 5.078125 -0.09375 C 4.722656 0.113281 4.320312 0.46875 3.875 0.96875 C 3.425781 1.476562 3.070312 1.890625 2.8125 2.203125 C 2.289062 2.847656 1.773438 3.613281 1.265625 4.5 C 0.765625 5.394531 0.515625 6.28125 0.515625 7.15625 Z M 0.125 -7.015625 C 0.125 -7.773438 0.328125 -8.445312 0.734375 -9.03125 C 1.140625 -9.625 1.625 -10.101562 2.1875 -10.46875 C 2.75 -10.832031 3.234375 -11.015625 3.640625 -11.015625 C 3.960938 -11.015625 4.203125 -10.894531 4.359375 -10.65625 C 4.515625 -10.425781 4.519531 -10.039062 4.375 -9.5 C 4.03125 -9.40625 3.785156 -9.347656 3.640625 -9.328125 C 3.492188 -9.316406 3.378906 -9.273438 3.296875 -9.203125 C 3.210938 -9.140625 3.050781 -8.976562 2.8125 -8.71875 C 2.238281 -8.082031 1.972656 -7.566406 2.015625 -7.171875 C 2.054688 -6.785156 2.285156 -6.425781 2.703125 -6.09375 C 3.128906 -5.757812 3.648438 -5.347656 4.265625 -4.859375 C 4.890625 -4.367188 5.476562 -3.703125 6.03125 -2.859375 C 6.664062 -3.296875 7.3125 -3.800781 7.96875 -4.375 L 12 -7.1875 C 12.375 -7.445312 12.695312 -7.628906 12.96875 -7.734375 C 13.25 -7.835938 13.492188 -7.890625 13.703125 -7.890625 C 14.046875 -7.890625 14.1875 -7.742188 14.125 -7.453125 C 14.070312 -7.160156 13.800781 -6.875 13.3125 -6.59375 L 10.359375 -4.546875 C 10.242188 -4.492188 10 -4.328125 9.625 -4.046875 C 9.25 -3.773438 8.835938 -3.472656 8.390625 -3.140625 C 7.941406 -2.804688 7.554688 -2.492188 7.234375 -2.203125 C 6.921875 -1.921875 6.75 -1.734375 6.71875 -1.640625 C 6.6875 -1.503906 6.726562 -1.234375 6.84375 -0.828125 C 6.957031 -0.421875 7.035156 0.101562 7.078125 0.75 C 7.128906 1.40625 7.046875 2.203125 6.828125 3.140625 C 6.609375 4.078125 6.140625 5.171875 5.421875 6.421875 C 4.785156 7.484375 4.085938 8.265625 3.328125 8.765625 C 2.578125 9.273438 1.875 9.53125 1.21875 9.53125 C 0.601562 9.53125 0.101562 9.328125 -0.28125 8.921875 C -0.664062 8.523438 -0.859375 7.9375 -0.859375 7.15625 C -0.859375 6.164062 -0.617188 5.207031 -0.140625 4.28125 C 0.328125 3.363281 0.894531 2.515625 1.5625 1.734375 C 2.226562 0.953125 2.84375 0.28125 3.40625 -0.28125 C 3.96875 -0.84375 4.332031 -1.253906 4.5 -1.515625 C 4.15625 -2.117188 3.738281 -2.644531 3.25 -3.09375 C 2.757812 -3.539062 2.273438 -3.953125 1.796875 -4.328125 C 1.316406 -4.703125 0.914062 -5.097656 0.59375 -5.515625 C 0.28125 -5.941406 0.125 -6.441406 0.125 -7.015625 Z M 0.125 -7.015625 "/></g></g><g style="fill:#000000;fill-opacity:1;"><g transform="translate(60.443364, 228.861093)"><path style="stroke:none" d="M 12.78125 -135.351562 L 41.921875 -135.351562 L 41.921875 -83.886719 L 40.683594 -83.886719 L 40.683594 -85.125 L 102.25 -85.125 L 102.25 -83.886719 L 101.011719 -83.886719 L 101.011719 -135.351562 L 131.390625 -135.351562 L 131.390625 1.238281 L 101.011719 1.238281 L 101.011719 -58.867188 L 102.25 -58.867188 L 102.25 -57.628906 L 40.683594 -57.628906 L 40.683594 -58.867188 L 41.921875 -58.867188 L 41.921875 1.238281 L 11.542969 1.238281 L 11.542969 -135.351562 Z M 12.78125 -132.875 L 12.78125 -134.113281 L 14.019531 -134.113281 L 14.019531 0 L 12.78125 0 L 12.78125 -1.238281 L 40.683594 -1.238281 L 40.683594 0 L 39.445312 0 L 39.445312 -60.105469 L 103.488281 -60.105469 L 103.488281 0 L 102.25 0 L 102.25 -1.238281 L 130.152344 -1.238281 L 130.152344 0 L 128.914062 0 L 128.914062 -134.113281 L 130.152344 -134.113281 L 130.152344 -132.875 L 102.25 -132.875 L 102.25 -134.113281 L 103.488281 -134.113281 L 103.488281 -82.652344 L 39.445312 -82.652344 L 39.445312 -134.113281 L 40.683594 -134.113281 L 40.683594 -132.875 Z M 12.78125 -132.875 "/></g></g><g style="fill:#000000;fill-opacity:1;"><g transform="translate(60.443364, 228.861093)"><path style="stroke:none" d="M 12.78125 -134.109375 L 40.6875 -134.109375 L 40.6875 -83.890625 L 102.25 -83.890625 L 102.25 -134.109375 L 130.15625 -134.109375 L 130.15625 0 L 102.25 0 L 102.25 -58.859375 L 40.6875 -58.859375 L 40.6875 0 L 12.78125 0 Z M 12.78125 -134.109375 "/></g></g></g></svg>