<svg xmlns="http://www.w3.org/2000/svg" xmlns:xlink="http://www.w3.org/1999/xlink" width="240" zoomAndPan="magnify" viewBox="0 0 180 44.999999" height="60" preserveAspectRatio="xMidYMid meet" version="1.2"><defs><clipPath id="5ef82dab43"><path d="M 1.933594 2.527344 L 14 2.527344 L 14 35 L 1.933594 35 Z M 1.933594 2.527344 "/></clipPath><clipPath id="690347c721"><path d="M 14 8 L 26 8 L 26 40.191406 L 14 40.191406 Z M 14 8 "/></clipPath></defs><g id="6f46147d3c"><g clip-rule="nonzero" clip-path="url(#5ef82dab43)"><path style=" stroke:none;fill-rule:nonzero;fill:#393536;fill-opacity:1;" d="M 1.945312 20.253906 L 1.945312 16.320312 C 2.742188 16.277344 3.34375 16.15625 3.746094 15.957031 C 4.152344 15.761719 4.5 15.429688 4.796875 14.964844 C 5.09375 14.503906 5.292969 13.921875 5.402344 13.21875 C 5.492188 12.695312 5.535156 11.78125 5.535156 10.480469 C 5.535156 8.363281 5.632812 6.882812 5.828125 6.046875 C 6.027344 5.210938 6.382812 4.539062 6.894531 4.03125 C 7.410156 3.523438 8.15625 3.121094 9.140625 2.824219 C 9.808594 2.628906 10.859375 2.53125 12.289062 2.53125 L 13.160156 2.53125 L 13.160156 6.449219 C 11.945312 6.449219 11.167969 6.515625 10.824219 6.652344 C 10.476562 6.789062 10.222656 6.996094 10.058594 7.277344 C 9.894531 7.554688 9.8125 8.035156 9.8125 8.710938 C 9.8125 9.398438 9.765625 10.707031 9.667969 12.628906 C 9.613281 13.710938 9.46875 14.589844 9.242188 15.261719 C 9.011719 15.933594 8.71875 16.488281 8.363281 16.925781 C 8.007812 17.363281 7.464844 17.816406 6.730469 18.285156 C 7.375 18.660156 7.902344 19.09375 8.3125 19.589844 C 8.722656 20.085938 9.039062 20.691406 9.257812 21.402344 C 9.476562 22.113281 9.617188 23.0625 9.683594 24.253906 C 9.757812 26.070312 9.796875 27.226562 9.796875 27.730469 C 9.796875 28.453125 9.886719 28.953125 10.058594 29.238281 C 10.234375 29.523438 10.5 29.738281 10.855469 29.886719 C 11.210938 30.035156 11.976562 30.109375 13.160156 30.109375 L 13.160156 34.042969 L 12.289062 34.042969 C 10.8125 34.042969 9.683594 33.925781 8.894531 33.691406 C 8.109375 33.457031 7.445312 33.066406 6.902344 32.519531 C 6.363281 31.972656 6 31.296875 5.8125 30.492188 C 5.628906 29.691406 5.535156 28.425781 5.535156 26.699219 C 5.535156 24.6875 5.445312 23.378906 5.273438 22.777344 C 5.03125 21.90625 4.667969 21.277344 4.183594 20.902344 C 3.695312 20.523438 2.949219 20.308594 1.945312 20.253906 "/></g><path style=" stroke:none;fill-rule:nonzero;fill:#ff6b00;fill-opacity:1;" d="M 26.820312 10.695312 L 24.253906 10.695312 L 24.253906 8.128906 L 26.820312 8.128906 L 26.820312 10.695312 "/><path style=" stroke:none;fill-rule:nonzero;fill:#ff6b00;fill-opacity:1;" d="M 26.210938 15.824219 L 24.253906 15.824219 L 24.253906 13.867188 L 26.210938 13.867188 L 26.210938 15.824219 "/><g clip-rule="nonzero" clip-path="url(#690347c721)"><path style=" stroke:none;fill-rule:nonzero;fill:#ff6b00;fill-opacity:1;" d="M 18.746094 12.65625 L 18.746094 10.695312 L 20.707031 10.695312 L 20.707031 12.65625 Z M 23.734375 21.820312 C 23.242188 21.445312 22.875 20.816406 22.636719 19.945312 C 22.503906 19.449219 22.425781 18.503906 22.398438 17.109375 L 20.707031 17.109375 L 20.707031 14.542969 L 22.363281 14.542969 C 22.320312 13.554688 22.234375 12.78125 22.101562 12.230469 C 21.910156 11.425781 21.546875 10.75 21.011719 10.195312 C 20.476562 9.644531 19.816406 9.253906 19.027344 9.023438 C 18.242188 8.792969 17.109375 8.679688 15.632812 8.679688 L 14.765625 8.679688 L 14.765625 12.597656 C 16 12.597656 16.796875 12.671875 17.152344 12.820312 C 17.507812 12.96875 17.753906 13.179688 17.890625 13.449219 C 18.027344 13.722656 18.097656 14.269531 18.109375 15.089844 C 18.164062 17.691406 18.253906 19.375 18.371094 20.140625 C 18.558594 21.253906 18.90625 22.171875 19.421875 22.894531 C 19.792969 23.398438 20.382812 23.910156 21.191406 24.4375 C 20.570312 24.796875 20.058594 25.214844 19.660156 25.691406 C 19.261719 26.167969 18.941406 26.746094 18.699219 27.429688 C 18.460938 28.113281 18.3125 29.023438 18.257812 30.160156 C 18.171875 32.039062 18.125 33.3125 18.117188 33.980469 C 18.113281 34.644531 18.027344 35.117188 17.855469 35.398438 C 17.6875 35.675781 17.421875 35.890625 17.0625 36.035156 C 16.699219 36.183594 15.933594 36.257812 14.765625 36.257812 L 14.765625 40.191406 L 15.632812 40.191406 C 17.066406 40.191406 18.117188 40.09375 18.78125 39.898438 C 19.777344 39.601562 20.53125 39.199219 21.046875 38.691406 C 21.558594 38.183594 21.910156 37.507812 22.101562 36.667969 C 22.292969 35.824219 22.390625 34.34375 22.390625 32.222656 C 22.390625 30.933594 22.433594 30.027344 22.519531 29.503906 C 22.640625 28.804688 22.847656 28.222656 23.136719 27.757812 C 23.425781 27.292969 23.773438 26.960938 24.175781 26.765625 C 24.582031 26.566406 25.183594 26.449219 25.980469 26.402344 L 25.980469 22.46875 C 24.976562 22.414062 24.226562 22.199219 23.734375 21.820312 "/></g><path style=" stroke:none;fill-rule:nonzero;fill:#ff6b00;fill-opacity:1;" d="M 31.820312 5.710938 L 29.863281 5.710938 L 29.863281 3.75 L 31.820312 3.75 L 31.820312 5.710938 "/><path style=" stroke:none;fill-rule:nonzero;fill:#ff6b00;fill-opacity:1;" d="M 21.992188 8.128906 L 18.332031 8.128906 L 18.332031 4.46875 L 21.992188 4.46875 L 21.992188 8.128906 "/><g style="fill:#393536;fill-opacity:1;"><g transform="translate(30.726687, 28.487038)"><path style="stroke:none" d="M 0.203125 -13.125 L 3.25 -13.125 L 5.765625 -5.421875 L 8.8125 -13.125 L 10.328125 -13.125 L 13.375 -5.421875 L 15.90625 -13.125 L 18.921875 -13.125 L 14.359375 0.234375 L 12.859375 0.234375 L 9.5625 -8.1875 L 6.296875 0.234375 L 4.78125 0.234375 Z M 0.203125 -13.125 "/></g></g><g style="fill:#393536;fill-opacity:1;"><g transform="translate(53.508431, 28.487038)"><path style="stroke:none" d="M 5.453125 0.28125 C 4.734375 0.28125 4.078125 0.160156 3.484375 -0.078125 C 2.890625 -0.316406 2.375 -0.644531 1.9375 -1.0625 C 1.507812 -1.476562 1.175781 -1.972656 0.9375 -2.546875 C 0.707031 -3.128906 0.59375 -3.769531 0.59375 -4.46875 C 0.59375 -5.15625 0.707031 -5.789062 0.9375 -6.375 C 1.175781 -6.96875 1.503906 -7.476562 1.921875 -7.90625 C 2.335938 -8.34375 2.832031 -8.679688 3.40625 -8.921875 C 3.976562 -9.160156 4.609375 -9.28125 5.296875 -9.28125 C 5.929688 -9.28125 6.519531 -9.171875 7.0625 -8.953125 C 7.601562 -8.742188 8.078125 -8.441406 8.484375 -8.046875 C 8.890625 -7.660156 9.207031 -7.195312 9.4375 -6.65625 C 9.664062 -6.125 9.78125 -5.535156 9.78125 -4.890625 C 9.78125 -4.660156 9.769531 -4.46875 9.75 -4.3125 C 9.738281 -4.15625 9.710938 -3.96875 9.671875 -3.75 L 3.3125 -3.75 C 3.4375 -3.195312 3.703125 -2.765625 4.109375 -2.453125 C 4.523438 -2.140625 5.054688 -1.984375 5.703125 -1.984375 C 6.160156 -1.984375 6.59375 -2.066406 7 -2.234375 C 7.40625 -2.398438 7.78125 -2.675781 8.125 -3.0625 L 9.515625 -1.515625 C 9.015625 -0.921875 8.410156 -0.472656 7.703125 -0.171875 C 6.992188 0.128906 6.242188 0.28125 5.453125 0.28125 Z M 7.171875 -5.5625 C 7.054688 -6.113281 6.832031 -6.53125 6.5 -6.8125 C 6.164062 -7.101562 5.75 -7.25 5.25 -7.25 C 4.738281 -7.25 4.3125 -7.097656 3.96875 -6.796875 C 3.625 -6.492188 3.390625 -6.082031 3.265625 -5.5625 Z M 7.171875 -5.5625 "/></g></g><g style="fill:#393536;fill-opacity:1;"><g transform="translate(67.533986, 28.487038)"><path style="stroke:none" d="M 1.46875 -13.125 L 5.296875 -13.125 C 5.960938 -13.125 6.570312 -13.03125 7.125 -12.84375 C 7.6875 -12.65625 8.171875 -12.394531 8.578125 -12.0625 C 8.984375 -11.738281 9.300781 -11.351562 9.53125 -10.90625 C 9.757812 -10.457031 9.875 -9.96875 9.875 -9.4375 C 9.875 -8.894531 9.742188 -8.398438 9.484375 -7.953125 C 9.234375 -7.503906 8.878906 -7.125 8.421875 -6.8125 C 9.023438 -6.519531 9.492188 -6.109375 9.828125 -5.578125 C 10.171875 -5.054688 10.34375 -4.472656 10.34375 -3.828125 C 10.34375 -3.273438 10.222656 -2.765625 9.984375 -2.296875 C 9.753906 -1.835938 9.429688 -1.429688 9.015625 -1.078125 C 8.609375 -0.734375 8.113281 -0.46875 7.53125 -0.28125 C 6.945312 -0.09375 6.316406 0 5.640625 0 L 1.46875 0 Z M 5.546875 -2.34375 C 6.148438 -2.34375 6.625 -2.484375 6.96875 -2.765625 C 7.3125 -3.046875 7.484375 -3.4375 7.484375 -3.9375 C 7.484375 -4.414062 7.3125 -4.789062 6.96875 -5.0625 C 6.632812 -5.34375 6.160156 -5.484375 5.546875 -5.484375 L 4.328125 -5.484375 L 4.328125 -2.34375 Z M 5.296875 -7.84375 C 5.816406 -7.84375 6.234375 -7.972656 6.546875 -8.234375 C 6.859375 -8.503906 7.015625 -8.867188 7.015625 -9.328125 C 7.015625 -9.785156 6.859375 -10.140625 6.546875 -10.390625 C 6.234375 -10.648438 5.816406 -10.78125 5.296875 -10.78125 L 4.328125 -10.78125 L 4.328125 -7.84375 Z M 5.296875 -7.84375 "/></g></g><g style="fill:#393536;fill-opacity:1;"><g transform="translate(82.323506, 28.487038)"><path style="stroke:none" d="M 4.375 0.28125 C 3.875 0.28125 3.414062 0.1875 3 0 C 2.59375 -0.195312 2.238281 -0.460938 1.9375 -0.796875 C 1.632812 -1.128906 1.398438 -1.519531 1.234375 -1.96875 C 1.066406 -2.414062 0.984375 -2.898438 0.984375 -3.421875 L 0.984375 -9.015625 L 3.609375 -9.015625 L 3.609375 -4.078125 C 3.609375 -3.472656 3.75 -2.992188 4.03125 -2.640625 C 4.320312 -2.285156 4.71875 -2.109375 5.21875 -2.109375 C 5.707031 -2.109375 6.097656 -2.289062 6.390625 -2.65625 C 6.691406 -3.03125 6.84375 -3.523438 6.84375 -4.140625 L 6.84375 -9.015625 L 9.46875 -9.015625 L 9.46875 0 L 6.9375 0 L 6.9375 -1.078125 C 6.613281 -0.648438 6.234375 -0.316406 5.796875 -0.078125 C 5.367188 0.160156 4.894531 0.28125 4.375 0.28125 Z M 4.375 0.28125 "/></g></g><g style="fill:#393536;fill-opacity:1;"><g transform="translate(96.525363, 28.487038)"><path style="stroke:none" d="M 1.109375 -9.015625 L 3.75 -9.015625 L 3.75 0 L 1.109375 0 Z M 2.421875 -10.40625 C 1.992188 -10.40625 1.628906 -10.554688 1.328125 -10.859375 C 1.023438 -11.160156 0.875 -11.523438 0.875 -11.953125 C 0.875 -12.367188 1.023438 -12.726562 1.328125 -13.03125 C 1.628906 -13.332031 1.992188 -13.484375 2.421875 -13.484375 C 2.859375 -13.484375 3.222656 -13.332031 3.515625 -13.03125 C 3.804688 -12.726562 3.953125 -12.367188 3.953125 -11.953125 C 3.953125 -11.523438 3.804688 -11.160156 3.515625 -10.859375 C 3.222656 -10.554688 2.859375 -10.40625 2.421875 -10.40625 Z M 2.421875 -10.40625 "/></g></g><g style="fill:#393536;fill-opacity:1;"><g transform="translate(105.026883, 28.487038)"><path style="stroke:none" d="M 1.078125 -13.90625 L 3.703125 -13.90625 L 3.703125 0 L 1.078125 0 Z M 1.078125 -13.90625 "/></g></g><g style="fill:#393536;fill-opacity:1;"><g transform="translate(113.469638, 28.487038)"><path style="stroke:none" d="M 4.921875 0.28125 C 4.304688 0.28125 3.734375 0.160156 3.203125 -0.078125 C 2.679688 -0.328125 2.222656 -0.664062 1.828125 -1.09375 C 1.441406 -1.53125 1.140625 -2.035156 0.921875 -2.609375 C 0.703125 -3.191406 0.59375 -3.820312 0.59375 -4.5 C 0.59375 -5.164062 0.703125 -5.789062 0.921875 -6.375 C 1.140625 -6.957031 1.441406 -7.460938 1.828125 -7.890625 C 2.222656 -8.328125 2.6875 -8.664062 3.21875 -8.90625 C 3.757812 -9.15625 4.335938 -9.28125 4.953125 -9.28125 C 5.492188 -9.28125 5.988281 -9.1875 6.4375 -9 C 6.882812 -8.820312 7.28125 -8.566406 7.625 -8.234375 L 7.625 -13.90625 L 10.25 -13.90625 L 10.25 0 L 7.734375 0 L 7.734375 -0.984375 C 7.398438 -0.597656 6.992188 -0.289062 6.515625 -0.0625 C 6.035156 0.164062 5.503906 0.28125 4.921875 0.28125 Z M 5.484375 -2.109375 C 5.804688 -2.109375 6.101562 -2.171875 6.375 -2.296875 C 6.65625 -2.421875 6.894531 -2.59375 7.09375 -2.8125 C 7.300781 -3.03125 7.457031 -3.28125 7.5625 -3.5625 C 7.675781 -3.851562 7.734375 -4.164062 7.734375 -4.5 C 7.734375 -4.84375 7.675781 -5.15625 7.5625 -5.4375 C 7.457031 -5.726562 7.300781 -5.984375 7.09375 -6.203125 C 6.894531 -6.421875 6.65625 -6.585938 6.375 -6.703125 C 6.101562 -6.828125 5.804688 -6.890625 5.484375 -6.890625 C 5.171875 -6.890625 4.875 -6.828125 4.59375 -6.703125 C 4.320312 -6.585938 4.085938 -6.421875 3.890625 -6.203125 C 3.703125 -5.984375 3.550781 -5.726562 3.4375 -5.4375 C 3.320312 -5.15625 3.265625 -4.84375 3.265625 -4.5 C 3.265625 -4.164062 3.320312 -3.851562 3.4375 -3.5625 C 3.550781 -3.28125 3.703125 -3.03125 3.890625 -2.8125 C 4.085938 -2.59375 4.320312 -2.421875 4.59375 -2.296875 C 4.875 -2.171875 5.171875 -2.109375 5.484375 -2.109375 Z M 5.484375 -2.109375 "/></g></g><g style="fill:#393536;fill-opacity:1;"><g transform="translate(128.455043, 28.487038)"><path style="stroke:none" d="M 2.765625 0.171875 C 2.316406 0.171875 1.9375 0.0195312 1.625 -0.28125 C 1.320312 -0.59375 1.171875 -0.96875 1.171875 -1.40625 C 1.171875 -1.863281 1.320312 -2.242188 1.625 -2.546875 C 1.9375 -2.859375 2.316406 -3.015625 2.765625 -3.015625 C 3.222656 -3.015625 3.597656 -2.859375 3.890625 -2.546875 C 4.191406 -2.242188 4.34375 -1.863281 4.34375 -1.40625 C 4.34375 -0.96875 4.191406 -0.59375 3.890625 -0.28125 C 3.597656 0.0195312 3.222656 0.171875 2.765625 0.171875 Z M 2.765625 0.171875 "/></g></g><g style="fill:#393536;fill-opacity:1;"><g transform="translate(137.642172, 28.487038)"><path style="stroke:none" d="M 4.921875 0.28125 C 4.304688 0.28125 3.734375 0.160156 3.203125 -0.078125 C 2.679688 -0.328125 2.222656 -0.664062 1.828125 -1.09375 C 1.441406 -1.53125 1.140625 -2.035156 0.921875 -2.609375 C 0.703125 -3.191406 0.59375 -3.820312 0.59375 -4.5 C 0.59375 -5.164062 0.703125 -5.789062 0.921875 -6.375 C 1.140625 -6.957031 1.441406 -7.460938 1.828125 -7.890625 C 2.222656 -8.328125 2.6875 -8.664062 3.21875 -8.90625 C 3.757812 -9.15625 4.335938 -9.28125 4.953125 -9.28125 C 5.492188 -9.28125 5.988281 -9.1875 6.4375 -9 C 6.882812 -8.820312 7.28125 -8.566406 7.625 -8.234375 L 7.625 -13.90625 L 10.25 -13.90625 L 10.25 0 L 7.734375 0 L 7.734375 -0.984375 C 7.398438 -0.597656 6.992188 -0.289062 6.515625 -0.0625 C 6.035156 0.164062 5.503906 0.28125 4.921875 0.28125 Z M 5.484375 -2.109375 C 5.804688 -2.109375 6.101562 -2.171875 6.375 -2.296875 C 6.65625 -2.421875 6.894531 -2.59375 7.09375 -2.8125 C 7.300781 -3.03125 7.457031 -3.28125 7.5625 -3.5625 C 7.675781 -3.851562 7.734375 -4.164062 7.734375 -4.5 C 7.734375 -4.84375 7.675781 -5.15625 7.5625 -5.4375 C 7.457031 -5.726562 7.300781 -5.984375 7.09375 -6.203125 C 6.894531 -6.421875 6.65625 -6.585938 6.375 -6.703125 C 6.101562 -6.828125 5.804688 -6.890625 5.484375 -6.890625 C 5.171875 -6.890625 4.875 -6.828125 4.59375 -6.703125 C 4.320312 -6.585938 4.085938 -6.421875 3.890625 -6.203125 C 3.703125 -5.984375 3.550781 -5.726562 3.4375 -5.4375 C 3.320312 -5.15625 3.265625 -4.84375 3.265625 -4.5 C 3.265625 -4.164062 3.320312 -3.851562 3.4375 -3.5625 C 3.550781 -3.28125 3.703125 -3.03125 3.890625 -2.8125 C 4.085938 -2.59375 4.320312 -2.421875 4.59375 -2.296875 C 4.875 -2.171875 5.171875 -2.109375 5.484375 -2.109375 Z M 5.484375 -2.109375 "/></g></g><g style="fill:#393536;fill-opacity:1;"><g transform="translate(152.627584, 28.487038)"><path style="stroke:none" d="M 5.453125 0.28125 C 4.734375 0.28125 4.078125 0.160156 3.484375 -0.078125 C 2.890625 -0.316406 2.375 -0.644531 1.9375 -1.0625 C 1.507812 -1.476562 1.175781 -1.972656 0.9375 -2.546875 C 0.707031 -3.128906 0.59375 -3.769531 0.59375 -4.46875 C 0.59375 -5.15625 0.707031 -5.789062 0.9375 -6.375 C 1.175781 -6.96875 1.503906 -7.476562 1.921875 -7.90625 C 2.335938 -8.34375 2.832031 -8.679688 3.40625 -8.921875 C 3.976562 -9.160156 4.609375 -9.28125 5.296875 -9.28125 C 5.929688 -9.28125 6.519531 -9.171875 7.0625 -8.953125 C 7.601562 -8.742188 8.078125 -8.441406 8.484375 -8.046875 C 8.890625 -7.660156 9.207031 -7.195312 9.4375 -6.65625 C 9.664062 -6.125 9.78125 -5.535156 9.78125 -4.890625 C 9.78125 -4.660156 9.769531 -4.46875 9.75 -4.3125 C 9.738281 -4.15625 9.710938 -3.96875 9.671875 -3.75 L 3.3125 -3.75 C 3.4375 -3.195312 3.703125 -2.765625 4.109375 -2.453125 C 4.523438 -2.140625 5.054688 -1.984375 5.703125 -1.984375 C 6.160156 -1.984375 6.59375 -2.066406 7 -2.234375 C 7.40625 -2.398438 7.78125 -2.675781 8.125 -3.0625 L 9.515625 -1.515625 C 9.015625 -0.921875 8.410156 -0.472656 7.703125 -0.171875 C 6.992188 0.128906 6.242188 0.28125 5.453125 0.28125 Z M 7.171875 -5.5625 C 7.054688 -6.113281 6.832031 -6.53125 6.5 -6.8125 C 6.164062 -7.101562 5.75 -7.25 5.25 -7.25 C 4.738281 -7.25 4.3125 -7.097656 3.96875 -6.796875 C 3.625 -6.492188 3.390625 -6.082031 3.265625 -5.5625 Z M 7.171875 -5.5625 "/></g></g><g style="fill:#393536;fill-opacity:1;"><g transform="translate(166.653139, 28.487038)"><path style="stroke:none" d="M 0 -9.015625 L 2.796875 -9.015625 L 4.65625 -4.1875 L 6.53125 -9.015625 L 9.234375 -9.015625 L 5.328125 0.234375 L 3.84375 0.234375 Z M 0 -9.015625 "/></g></g><g style="fill:#ff6b00;fill-opacity:1;"><g transform="translate(35.129267, 40.649861)"><path style="stroke:none" d="M 0.453125 0 L 0.453125 -4.640625 L 3.4375 -4.640625 L 3.4375 -3.953125 L 1.296875 -3.953125 L 1.296875 -2.65625 L 3.03125 -2.65625 L 3.03125 -1.984375 L 1.296875 -1.984375 L 1.296875 0 Z M 0.453125 0 "/></g></g><g style="fill:#ff6b00;fill-opacity:1;"><g transform="translate(41.57902, 40.649861)"><path style="stroke:none" d="M 0.453125 0 L 0.453125 -4.640625 L 2.15625 -4.640625 C 2.519531 -4.640625 2.820312 -4.578125 3.0625 -4.453125 C 3.3125 -4.328125 3.492188 -4.15625 3.609375 -3.9375 C 3.734375 -3.726562 3.796875 -3.488281 3.796875 -3.21875 C 3.796875 -2.9375 3.71875 -2.675781 3.5625 -2.4375 C 3.414062 -2.207031 3.1875 -2.039062 2.875 -1.9375 L 3.828125 0 L 2.859375 0 L 2 -1.828125 L 1.296875 -1.828125 L 1.296875 0 Z M 1.296875 -2.453125 L 2.09375 -2.453125 C 2.382812 -2.453125 2.59375 -2.519531 2.71875 -2.65625 C 2.851562 -2.789062 2.921875 -2.972656 2.921875 -3.203125 C 2.921875 -3.421875 2.851562 -3.59375 2.71875 -3.71875 C 2.59375 -3.851562 2.382812 -3.921875 2.09375 -3.921875 L 1.296875 -3.921875 Z M 1.296875 -2.453125 "/></g></g><g style="fill:#ff6b00;fill-opacity:1;"><g transform="translate(48.505547, 40.649861)"><path style="stroke:none" d="M 2.625 0.078125 C 2.15625 0.078125 1.75 -0.0195312 1.40625 -0.21875 C 1.0625 -0.425781 0.789062 -0.707031 0.59375 -1.0625 C 0.394531 -1.425781 0.296875 -1.84375 0.296875 -2.3125 C 0.296875 -2.789062 0.394531 -3.207031 0.59375 -3.5625 C 0.789062 -3.925781 1.0625 -4.207031 1.40625 -4.40625 C 1.75 -4.613281 2.15625 -4.71875 2.625 -4.71875 C 3.082031 -4.71875 3.484375 -4.613281 3.828125 -4.40625 C 4.179688 -4.207031 4.453125 -3.925781 4.640625 -3.5625 C 4.835938 -3.207031 4.9375 -2.789062 4.9375 -2.3125 C 4.9375 -1.84375 4.835938 -1.425781 4.640625 -1.0625 C 4.453125 -0.707031 4.179688 -0.425781 3.828125 -0.21875 C 3.484375 -0.0195312 3.082031 0.078125 2.625 0.078125 Z M 2.625 -0.6875 C 3.0625 -0.6875 3.410156 -0.832031 3.671875 -1.125 C 3.941406 -1.414062 4.078125 -1.8125 4.078125 -2.3125 C 4.078125 -2.820312 3.941406 -3.222656 3.671875 -3.515625 C 3.410156 -3.804688 3.0625 -3.953125 2.625 -3.953125 C 2.1875 -3.953125 1.832031 -3.804688 1.5625 -3.515625 C 1.300781 -3.222656 1.171875 -2.820312 1.171875 -2.3125 C 1.171875 -1.8125 1.300781 -1.414062 1.5625 -1.125 C 1.832031 -0.832031 2.1875 -0.6875 2.625 -0.6875 Z M 2.625 -0.6875 "/></g></g><g style="fill:#ff6b00;fill-opacity:1;"><g transform="translate(56.544558, 40.649861)"><path style="stroke:none" d="M 0.453125 0 L 0.453125 -4.640625 L 1.453125 -4.640625 L 2.9375 -1.703125 L 4.390625 -4.640625 L 5.40625 -4.640625 L 5.40625 0 L 4.546875 0 L 4.546875 -3.203125 L 3.265625 -0.65625 L 2.59375 -0.65625 L 1.296875 -3.203125 L 1.296875 0 Z M 0.453125 0 "/></g></g><g style="fill:#ff6b00;fill-opacity:1;"><g transform="translate(65.192784, 40.649861)"><path style="stroke:none" d=""/></g></g><g style="fill:#ff6b00;fill-opacity:1;"><g transform="translate(69.569873, 40.649861)"><path style="stroke:none" d="M 2.546875 0.078125 C 2.078125 0.078125 1.675781 -0.0195312 1.34375 -0.21875 C 1.007812 -0.414062 0.75 -0.695312 0.5625 -1.0625 C 0.382812 -1.425781 0.296875 -1.84375 0.296875 -2.3125 C 0.296875 -2.78125 0.382812 -3.195312 0.5625 -3.5625 C 0.75 -3.925781 1.007812 -4.207031 1.34375 -4.40625 C 1.675781 -4.613281 2.078125 -4.71875 2.546875 -4.71875 C 3.109375 -4.71875 3.566406 -4.578125 3.921875 -4.296875 C 4.273438 -4.023438 4.492188 -3.640625 4.578125 -3.140625 L 3.65625 -3.140625 C 3.59375 -3.390625 3.46875 -3.585938 3.28125 -3.734375 C 3.09375 -3.878906 2.84375 -3.953125 2.53125 -3.953125 C 2.101562 -3.953125 1.769531 -3.804688 1.53125 -3.515625 C 1.289062 -3.222656 1.171875 -2.820312 1.171875 -2.3125 C 1.171875 -1.800781 1.289062 -1.398438 1.53125 -1.109375 C 1.769531 -0.828125 2.101562 -0.6875 2.53125 -0.6875 C 2.84375 -0.6875 3.09375 -0.753906 3.28125 -0.890625 C 3.46875 -1.023438 3.59375 -1.207031 3.65625 -1.4375 L 4.578125 -1.4375 C 4.492188 -0.96875 4.273438 -0.597656 3.921875 -0.328125 C 3.566406 -0.0546875 3.109375 0.078125 2.546875 0.078125 Z M 2.546875 0.078125 "/></g></g><g style="fill:#ff6b00;fill-opacity:1;"><g transform="translate(77.251301, 40.649861)"><path style="stroke:none" d="M 2.625 0.078125 C 2.15625 0.078125 1.75 -0.0195312 1.40625 -0.21875 C 1.0625 -0.425781 0.789062 -0.707031 0.59375 -1.0625 C 0.394531 -1.425781 0.296875 -1.84375 0.296875 -2.3125 C 0.296875 -2.789062 0.394531 -3.207031 0.59375 -3.5625 C 0.789062 -3.925781 1.0625 -4.207031 1.40625 -4.40625 C 1.75 -4.613281 2.15625 -4.71875 2.625 -4.71875 C 3.082031 -4.71875 3.484375 -4.613281 3.828125 -4.40625 C 4.179688 -4.207031 4.453125 -3.925781 4.640625 -3.5625 C 4.835938 -3.207031 4.9375 -2.789062 4.9375 -2.3125 C 4.9375 -1.84375 4.835938 -1.425781 4.640625 -1.0625 C 4.453125 -0.707031 4.179688 -0.425781 3.828125 -0.21875 C 3.484375 -0.0195312 3.082031 0.078125 2.625 0.078125 Z M 2.625 -0.6875 C 3.0625 -0.6875 3.410156 -0.832031 3.671875 -1.125 C 3.941406 -1.414062 4.078125 -1.8125 4.078125 -2.3125 C 4.078125 -2.820312 3.941406 -3.222656 3.671875 -3.515625 C 3.410156 -3.804688 3.0625 -3.953125 2.625 -3.953125 C 2.1875 -3.953125 1.832031 -3.804688 1.5625 -3.515625 C 1.300781 -3.222656 1.171875 -2.820312 1.171875 -2.3125 C 1.171875 -1.8125 1.300781 -1.414062 1.5625 -1.125 C 1.832031 -0.832031 2.1875 -0.6875 2.625 -0.6875 Z M 2.625 -0.6875 "/></g></g><g style="fill:#ff6b00;fill-opacity:1;"><g transform="translate(85.290311, 40.649861)"><path style="stroke:none" d="M 0.453125 0 L 0.453125 -4.640625 L 1.296875 -4.640625 L 3.484375 -1.375 L 3.484375 -4.640625 L 4.328125 -4.640625 L 4.328125 0 L 3.484375 0 L 1.296875 -3.265625 L 1.296875 0 Z M 0.453125 0 "/></g></g><g style="fill:#ff6b00;fill-opacity:1;"><g transform="translate(92.86579, 40.649861)"><path style="stroke:none" d="M 2.546875 0.078125 C 2.078125 0.078125 1.675781 -0.0195312 1.34375 -0.21875 C 1.007812 -0.414062 0.75 -0.695312 0.5625 -1.0625 C 0.382812 -1.425781 0.296875 -1.84375 0.296875 -2.3125 C 0.296875 -2.78125 0.382812 -3.195312 0.5625 -3.5625 C 0.75 -3.925781 1.007812 -4.207031 1.34375 -4.40625 C 1.675781 -4.613281 2.078125 -4.71875 2.546875 -4.71875 C 3.109375 -4.71875 3.566406 -4.578125 3.921875 -4.296875 C 4.273438 -4.023438 4.492188 -3.640625 4.578125 -3.140625 L 3.65625 -3.140625 C 3.59375 -3.390625 3.46875 -3.585938 3.28125 -3.734375 C 3.09375 -3.878906 2.84375 -3.953125 2.53125 -3.953125 C 2.101562 -3.953125 1.769531 -3.804688 1.53125 -3.515625 C 1.289062 -3.222656 1.171875 -2.820312 1.171875 -2.3125 C 1.171875 -1.800781 1.289062 -1.398438 1.53125 -1.109375 C 1.769531 -0.828125 2.101562 -0.6875 2.53125 -0.6875 C 2.84375 -0.6875 3.09375 -0.753906 3.28125 -0.890625 C 3.46875 -1.023438 3.59375 -1.207031 3.65625 -1.4375 L 4.578125 -1.4375 C 4.492188 -0.96875 4.273438 -0.597656 3.921875 -0.328125 C 3.566406 -0.0546875 3.109375 0.078125 2.546875 0.078125 Z M 2.546875 0.078125 "/></g></g><g style="fill:#ff6b00;fill-opacity:1;"><g transform="translate(100.547218, 40.649861)"><path style="stroke:none" d="M 0.453125 0 L 0.453125 -4.640625 L 3.484375 -4.640625 L 3.484375 -3.953125 L 1.296875 -3.953125 L 1.296875 -2.6875 L 3.28125 -2.6875 L 3.28125 -2.015625 L 1.296875 -2.015625 L 1.296875 -0.6875 L 3.484375 -0.6875 L 3.484375 0 Z M 0.453125 0 "/></g></g><g style="fill:#ff6b00;fill-opacity:1;"><g transform="translate(107.175758, 40.649861)"><path style="stroke:none" d="M 0.453125 0 L 0.453125 -4.640625 L 2.171875 -4.640625 C 2.535156 -4.640625 2.835938 -4.578125 3.078125 -4.453125 C 3.328125 -4.328125 3.507812 -4.15625 3.625 -3.9375 C 3.75 -3.726562 3.8125 -3.488281 3.8125 -3.21875 C 3.8125 -2.957031 3.753906 -2.71875 3.640625 -2.5 C 3.523438 -2.289062 3.34375 -2.117188 3.09375 -1.984375 C 2.851562 -1.859375 2.546875 -1.796875 2.171875 -1.796875 L 1.296875 -1.796875 L 1.296875 0 Z M 1.296875 -2.484375 L 2.109375 -2.484375 C 2.410156 -2.484375 2.625 -2.546875 2.75 -2.671875 C 2.882812 -2.804688 2.953125 -2.988281 2.953125 -3.21875 C 2.953125 -3.445312 2.882812 -3.625 2.75 -3.75 C 2.625 -3.882812 2.410156 -3.953125 2.109375 -3.953125 L 1.296875 -3.953125 Z M 1.296875 -2.484375 "/></g></g><g style="fill:#ff6b00;fill-opacity:1;"><g transform="translate(113.996336, 40.649861)"><path style="stroke:none" d="M 1.53125 0 L 1.53125 -3.953125 L 0.171875 -3.953125 L 0.171875 -4.640625 L 3.734375 -4.640625 L 3.734375 -3.953125 L 2.375 -3.953125 L 2.375 0 Z M 1.53125 0 "/></g></g><g style="fill:#ff6b00;fill-opacity:1;"><g transform="translate(120.710965, 40.649861)"><path style="stroke:none" d=""/></g></g><g style="fill:#ff6b00;fill-opacity:1;"><g transform="translate(125.088053, 40.649861)"><path style="stroke:none" d="M 1.53125 0 L 1.53125 -3.953125 L 0.171875 -3.953125 L 0.171875 -4.640625 L 3.734375 -4.640625 L 3.734375 -3.953125 L 2.375 -3.953125 L 2.375 0 Z M 1.53125 0 "/></g></g><g style="fill:#ff6b00;fill-opacity:1;"><g transform="translate(131.802682, 40.649861)"><path style="stroke:none" d="M 2.625 0.078125 C 2.15625 0.078125 1.75 -0.0195312 1.40625 -0.21875 C 1.0625 -0.425781 0.789062 -0.707031 0.59375 -1.0625 C 0.394531 -1.425781 0.296875 -1.84375 0.296875 -2.3125 C 0.296875 -2.789062 0.394531 -3.207031 0.59375 -3.5625 C 0.789062 -3.925781 1.0625 -4.207031 1.40625 -4.40625 C 1.75 -4.613281 2.15625 -4.71875 2.625 -4.71875 C 3.082031 -4.71875 3.484375 -4.613281 3.828125 -4.40625 C 4.179688 -4.207031 4.453125 -3.925781 4.640625 -3.5625 C 4.835938 -3.207031 4.9375 -2.789062 4.9375 -2.3125 C 4.9375 -1.84375 4.835938 -1.425781 4.640625 -1.0625 C 4.453125 -0.707031 4.179688 -0.425781 3.828125 -0.21875 C 3.484375 -0.0195312 3.082031 0.078125 2.625 0.078125 Z M 2.625 -0.6875 C 3.0625 -0.6875 3.410156 -0.832031 3.671875 -1.125 C 3.941406 -1.414062 4.078125 -1.8125 4.078125 -2.3125 C 4.078125 -2.820312 3.941406 -3.222656 3.671875 -3.515625 C 3.410156 -3.804688 3.0625 -3.953125 2.625 -3.953125 C 2.1875 -3.953125 1.832031 -3.804688 1.5625 -3.515625 C 1.300781 -3.222656 1.171875 -2.820312 1.171875 -2.3125 C 1.171875 -1.8125 1.300781 -1.414062 1.5625 -1.125 C 1.832031 -0.832031 2.1875 -0.6875 2.625 -0.6875 Z M 2.625 -0.6875 "/></g></g><g style="fill:#ff6b00;fill-opacity:1;"><g transform="translate(139.841692, 40.649861)"><path style="stroke:none" d=""/></g></g><g style="fill:#ff6b00;fill-opacity:1;"><g transform="translate(144.21878, 40.649861)"><path style="stroke:none" d="M 2.546875 0.078125 C 2.078125 0.078125 1.675781 -0.0195312 1.34375 -0.21875 C 1.007812 -0.414062 0.75 -0.695312 0.5625 -1.0625 C 0.382812 -1.425781 0.296875 -1.84375 0.296875 -2.3125 C 0.296875 -2.78125 0.382812 -3.195312 0.5625 -3.5625 C 0.75 -3.925781 1.007812 -4.207031 1.34375 -4.40625 C 1.675781 -4.613281 2.078125 -4.71875 2.546875 -4.71875 C 3.109375 -4.71875 3.566406 -4.578125 3.921875 -4.296875 C 4.273438 -4.023438 4.492188 -3.640625 4.578125 -3.140625 L 3.65625 -3.140625 C 3.59375 -3.390625 3.46875 -3.585938 3.28125 -3.734375 C 3.09375 -3.878906 2.84375 -3.953125 2.53125 -3.953125 C 2.101562 -3.953125 1.769531 -3.804688 1.53125 -3.515625 C 1.289062 -3.222656 1.171875 -2.820312 1.171875 -2.3125 C 1.171875 -1.800781 1.289062 -1.398438 1.53125 -1.109375 C 1.769531 -0.828125 2.101562 -0.6875 2.53125 -0.6875 C 2.84375 -0.6875 3.09375 -0.753906 3.28125 -0.890625 C 3.46875 -1.023438 3.59375 -1.207031 3.65625 -1.4375 L 4.578125 -1.4375 C 4.492188 -0.96875 4.273438 -0.597656 3.921875 -0.328125 C 3.566406 -0.0546875 3.109375 0.078125 2.546875 0.078125 Z M 2.546875 0.078125 "/></g></g><g style="fill:#ff6b00;fill-opacity:1;"><g transform="translate(151.900202, 40.649861)"><path style="stroke:none" d="M 2.625 0.078125 C 2.15625 0.078125 1.75 -0.0195312 1.40625 -0.21875 C 1.0625 -0.425781 0.789062 -0.707031 0.59375 -1.0625 C 0.394531 -1.425781 0.296875 -1.84375 0.296875 -2.3125 C 0.296875 -2.789062 0.394531 -3.207031 0.59375 -3.5625 C 0.789062 -3.925781 1.0625 -4.207031 1.40625 -4.40625 C 1.75 -4.613281 2.15625 -4.71875 2.625 -4.71875 C 3.082031 -4.71875 3.484375 -4.613281 3.828125 -4.40625 C 4.179688 -4.207031 4.453125 -3.925781 4.640625 -3.5625 C 4.835938 -3.207031 4.9375 -2.789062 4.9375 -2.3125 C 4.9375 -1.84375 4.835938 -1.425781 4.640625 -1.0625 C 4.453125 -0.707031 4.179688 -0.425781 3.828125 -0.21875 C 3.484375 -0.0195312 3.082031 0.078125 2.625 0.078125 Z M 2.625 -0.6875 C 3.0625 -0.6875 3.410156 -0.832031 3.671875 -1.125 C 3.941406 -1.414062 4.078125 -1.8125 4.078125 -2.3125 C 4.078125 -2.820312 3.941406 -3.222656 3.671875 -3.515625 C 3.410156 -3.804688 3.0625 -3.953125 2.625 -3.953125 C 2.1875 -3.953125 1.832031 -3.804688 1.5625 -3.515625 C 1.300781 -3.222656 1.171875 -2.820312 1.171875 -2.3125 C 1.171875 -1.8125 1.300781 -1.414062 1.5625 -1.125 C 1.832031 -0.832031 2.1875 -0.6875 2.625 -0.6875 Z M 2.625 -0.6875 "/></g></g><g style="fill:#ff6b00;fill-opacity:1;"><g transform="translate(159.939213, 40.649861)"><path style="stroke:none" d="M 0.453125 0 L 0.453125 -4.640625 L 2.03125 -4.640625 C 2.570312 -4.640625 3.019531 -4.539062 3.375 -4.34375 C 3.726562 -4.15625 3.988281 -3.882812 4.15625 -3.53125 C 4.320312 -3.1875 4.40625 -2.78125 4.40625 -2.3125 C 4.40625 -1.84375 4.320312 -1.4375 4.15625 -1.09375 C 3.988281 -0.75 3.726562 -0.476562 3.375 -0.28125 C 3.019531 -0.09375 2.570312 0 2.03125 0 Z M 1.296875 -0.734375 L 2 -0.734375 C 2.382812 -0.734375 2.6875 -0.796875 2.90625 -0.921875 C 3.132812 -1.046875 3.296875 -1.222656 3.390625 -1.453125 C 3.492188 -1.691406 3.546875 -1.976562 3.546875 -2.3125 C 3.546875 -2.644531 3.492188 -2.929688 3.390625 -3.171875 C 3.296875 -3.410156 3.132812 -3.59375 2.90625 -3.71875 C 2.6875 -3.851562 2.382812 -3.921875 2 -3.921875 L 1.296875 -3.921875 Z M 1.296875 -0.734375 "/></g></g><g style="fill:#ff6b00;fill-opacity:1;"><g transform="translate(167.448483, 40.649861)"><path style="stroke:none" d="M 0.453125 0 L 0.453125 -4.640625 L 3.484375 -4.640625 L 3.484375 -3.953125 L 1.296875 -3.953125 L 1.296875 -2.6875 L 3.28125 -2.6875 L 3.28125 -2.015625 L 1.296875 -2.015625 L 1.296875 -0.6875 L 3.484375 -0.6875 L 3.484375 0 Z M 0.453125 0 "/></g></g></g></svg>